<svg xmlns="http://www.w3.org/2000/svg" width="199" height="89.667" viewBox="0 0 199 89.667"><defs><style>.a,.b{fill:#fff;}.b{opacity:0.6;}</style></defs><g transform="translate(-1 -1.804)"><g transform="translate(134.117 73.217)"><path class="a" d="M378.879,73.848a3.963,3.963,0,0,1,1.947,1.837V73.859h3.226v12.01a6.742,6.742,0,0,1-.824,3.692Q381.811,91.7,377.79,91.7a7.4,7.4,0,0,1-3.957-.95A3.505,3.505,0,0,1,372.14,87.9h3.6a1.454,1.454,0,0,0,.455.835,2.809,2.809,0,0,0,1.8.455,2.412,2.412,0,0,0,2.39-1.2,6.035,6.035,0,0,0,.4-2.581V84.6a4.05,4.05,0,0,1-1.02,1.221,4.125,4.125,0,0,1-2.569.755,4.851,4.851,0,0,1-3.894-1.711,6.943,6.943,0,0,1-1.457-4.637,7.816,7.816,0,0,1,1.405-4.746,4.643,4.643,0,0,1,3.98-1.924A4.2,4.2,0,0,1,378.879,73.848ZM380,82.92a4.076,4.076,0,0,0,.8-2.794,4.284,4.284,0,0,0-.76-2.742,2.469,2.469,0,0,0-2.028-.939,2.4,2.4,0,0,0-2.4,1.636,5.85,5.85,0,0,0-.346,2.148,4.916,4.916,0,0,0,.369,1.964,2.418,2.418,0,0,0,2.408,1.6A2.523,2.523,0,0,0,380,82.92Z" transform="translate(-371.84 -73.445)"/><path class="a" d="M405.4,73.558c.04.006.138.012.282.017v3.393c-.207-.023-.4-.04-.559-.046s-.294-.012-.4-.012a2.749,2.749,0,0,0-2.684,1.3,5.086,5.086,0,0,0-.386,2.252v6.048H398.32V73.858h3.157v2.206a6.966,6.966,0,0,1,1.336-1.728,3.637,3.637,0,0,1,2.413-.778A1.679,1.679,0,0,1,405.4,73.558Z" transform="translate(-383.067 -73.443)"/><path class="a" d="M424.456,84.88a6.983,6.983,0,0,1-9.734,0,7.86,7.86,0,0,1,0-9.51,6.9,6.9,0,0,1,9.734,0,7.86,7.86,0,0,1,0,9.51Zm-2.65-1.826a5.905,5.905,0,0,0,0-5.858,2.942,2.942,0,0,0-4.464,0,5.867,5.867,0,0,0,0,5.858,2.931,2.931,0,0,0,4.464,0Z" transform="translate(-389.343 -73.36)"/><path class="a" d="M442.931,74.08v7.632a4.045,4.045,0,0,0,.253,1.624,1.75,1.75,0,0,0,1.768.962,2.305,2.305,0,0,0,2.31-1.371,5.042,5.042,0,0,0,.323-1.964V74.08h3.358V86.735h-3.214V84.949c-.029.04-.109.156-.23.346a2.343,2.343,0,0,1-.438.513,4.547,4.547,0,0,1-1.5.95,5.049,5.049,0,0,1-1.7.253c-1.866,0-3.128-.674-3.773-2.022a7.757,7.757,0,0,1-.541-3.289V74.08Z" transform="translate(-400.549 -73.665)"/><path class="a" d="M475.483,75.236a6.762,6.762,0,0,1,1.549,4.81,7.6,7.6,0,0,1-1.515,5.1,4.912,4.912,0,0,1-3.9,1.751,4.089,4.089,0,0,1-2.523-.755,4.792,4.792,0,0,1-1.077-1.221v6.6H464.74V73.876h3.168v1.872a5.263,5.263,0,0,1,1.146-1.3A4.222,4.222,0,0,1,471.7,73.6,4.974,4.974,0,0,1,475.483,75.236Zm-2.54,2.379a2.363,2.363,0,0,0-2.189-1.129,2.491,2.491,0,0,0-2.5,1.7,6.385,6.385,0,0,0-.351,2.3,3.647,3.647,0,0,0,1.187,3.1,2.694,2.694,0,0,0,1.665.524,2.421,2.421,0,0,0,2.131-1.071,4.938,4.938,0,0,0,.732-2.845A4.874,4.874,0,0,0,472.942,77.615Z" transform="translate(-411.229 -73.462)"/></g><path class="b" d="M42.449,64.964a14.867,14.867,0,0,1-6.042-1.244,16.185,16.185,0,0,1-8.364-8.341,14.46,14.46,0,0,1-1.187-4.821l-.075-1.008H15.74L15.8,50.7a25.957,25.957,0,0,0,2.033,8.986A26.811,26.811,0,0,0,32.087,73.938a26.06,26.06,0,0,0,10.368,2.1h1.774V64.964Z" transform="translate(-6.674 -20.576)"/><g transform="translate(71.022 1.804)"><path class="a" d="M161.339,4.822a26.706,26.706,0,0,0-21.652-.294,26.894,26.894,0,0,0-8.542,5.835,28.116,28.116,0,0,0-5.72,8.536A25.966,25.966,0,0,0,123.3,29.36c0,.317.017.616.04.91.012.138.017.276.023.42h0l.046,1.037h.023a25.921,25.921,0,0,0,1.987,8.133,26.839,26.839,0,0,0,14.273,14.325,26.319,26.319,0,0,0,10.529,2.148H152V45.264h-1.774A15.651,15.651,0,0,1,135.58,35.6a15.66,15.66,0,0,1-1.152-5.046l-.006-.1c-.029-.38-.052-.743-.052-1.106a15.786,15.786,0,0,1,4.585-11.209,16.315,16.315,0,0,1,5.075-3.445,15.676,15.676,0,0,1,12.649.179,18.3,18.3,0,0,1,5.391,3.83l1.2,1.244,8.093-7.361-1.187-1.313A27.758,27.758,0,0,0,161.339,4.822Z" transform="translate(-123.3 -2.38)"/><path class="a" d="M220.09,29.769V56.553h11.065V2.91H220.09Z" transform="translate(-164.338 -2.605)"/><path class="a" d="M305.436,18.9a27.776,27.776,0,0,0-14.36-14.36,26.669,26.669,0,0,0-20.92-.023,26.984,26.984,0,0,0-8.5,5.789,28.126,28.126,0,0,0-5.766,8.525,25.8,25.8,0,0,0-2.149,10.483v1.774h11.065V29.312A15.742,15.742,0,0,1,269.4,18.144a16.687,16.687,0,0,1,5.063-3.439,15.971,15.971,0,0,1,12.4,0,16.452,16.452,0,0,1,5.069,3.433,15.869,15.869,0,0,1,3.375,5.046,15.675,15.675,0,0,1,1.215,6.123V56.229h11.065V29.364A25.855,25.855,0,0,0,305.436,18.9Z" transform="translate(-178.606 -2.384)"/></g><g transform="translate(31.617 2.116)"><path class="a" d="M83.673,19.066a26.454,26.454,0,0,0-5.76-8.479A26.733,26.733,0,0,0,54.89,3.255V14.539a16.287,16.287,0,0,1,10.282.651A15.52,15.52,0,0,1,74.71,29.6V56.259H85.775V29.538A26.382,26.382,0,0,0,83.673,19.066Z" transform="translate(-54.89 -2.922)"/></g><g transform="translate(0 -112)"><g transform="translate(1 114.248)"><path class="a" d="M.171,7.225C.742,4.827,3.311,3.8,5.708,3.8c2.911,0,6.108,1.2,6.108,4.624,0,3.71-2.8,4.4-5.88,4.4-2.626,0-3.14,1.541-3.14,3.14h9.076v2.569H0V15.959c0-4.567,3.025-5.594,5.937-5.594,1.085,0,3.14-.171,3.14-1.884,0-1.6-1.427-2.34-3.311-2.34A2.86,2.86,0,0,0,2.911,7.682Z" transform="translate(0 -3.664)"/><path class="a" d="M23.6,10.091c0-8.734,12.787-8.677,12.787,0V12.2c0,8.677-12.787,8.734-12.787,0ZM26.34,12.2a3.667,3.667,0,1,0,7.307,0V10.091a3.662,3.662,0,1,0-7.307,0Z" transform="translate(-10.128 -3.562)"/></g><g transform="translate(1.058 130.937)"><path class="a" d="M5.694,33.2l-3.14,7.192H1.185l.97-2.169L.1,33.257H1.584l.742,2.169.457,1.427L3.3,35.426,4.21,33.2Z" transform="translate(-0.1 -32.972)"/><path class="a" d="M11.956,36.04c.057.628.628,1.085,1.541,1.085a2.2,2.2,0,0,0,1.37-.457l.8.8a3.014,3.014,0,0,1-2.169.8,2.684,2.684,0,1,1-.114-5.366c1.712,0,2.74,1.027,2.569,3.14h-4Zm2.74-1.027c-.057-.685-.571-.97-1.313-.97a1.379,1.379,0,0,0-1.427.97Z" transform="translate(-4.649 -32.843)"/><path class="a" d="M25.281,33.114h1.256v5.08H25.281v-.742a1.988,1.988,0,0,1-1.655.913A2.472,2.472,0,0,1,21,35.683,2.472,2.472,0,0,1,23.626,33a1.916,1.916,0,0,1,1.6.8v-.685Zm-3.025,2.512a1.454,1.454,0,0,0,1.484,1.541,1.542,1.542,0,0,0,0-3.082A1.524,1.524,0,0,0,22.256,35.626Z" transform="translate(-9.07 -32.886)"/><path class="a" d="M35.283,34.256a1.282,1.282,0,0,0-1.427,1.313v2.683H32.6v-5.08h1.256v.571A1.519,1.519,0,0,1,35.283,33Z" transform="translate(-14.048 -32.886)"/><path class="a" d="M41.539,34.4a1.717,1.717,0,0,0-1.256-.457c-.571,0-.913.171-.913.514s.285.514.97.571c.97.057,2.169.285,2.169,1.6,0,.913-.742,1.655-2.169,1.655A2.88,2.88,0,0,1,38,37.367l.628-.913a2.721,2.721,0,0,0,1.77.685c.457,0,.913-.228.913-.628,0-.342-.285-.514-1.027-.514-.97-.057-2.112-.4-2.112-1.6s1.2-1.6,2.169-1.6a2.847,2.847,0,0,1,2,.685Z" transform="translate(-16.366 -32.8)"/></g></g></g></svg>
