<?xml version="1.0" encoding="utf-8"?>
<!-- Generator: Adobe Illustrator 15.0.0, SVG Export Plug-In . SVG Version: 6.00 Build 0)  -->
<!DOCTYPE svg PUBLIC "-//W3C//DTD SVG 1.0//EN" "http://www.w3.org/TR/2001/REC-SVG-20010904/DTD/svg10.dtd">
<svg version="1.0" id="Layer_1" xmlns="http://www.w3.org/2000/svg" xmlns:xlink="http://www.w3.org/1999/xlink" x="0px" y="0px"
	 width="170.08px" height="56.69px" viewBox="0 0 170.08 56.69" enable-background="new 0 0 170.08 56.69" xml:space="preserve">
<g>
	<rect x="0" fill="none" width="170.079" height="56.693"/>
	<g>
		<g>
			<path fill="#FFFFFF" d="M126.925,46.219c0,0.973-0.316,1.771-0.953,2.398c-0.645,0.617-1.469,0.926-2.469,0.926
				s-1.822-0.309-2.469-0.926c-0.635-0.627-0.953-1.426-0.953-2.398v-6.747h0.756v6.648c0,0.832,0.244,1.496,0.73,1.992
				c0.486,0.505,1.131,0.757,1.936,0.757s1.449-0.252,1.936-0.757c0.486-0.496,0.729-1.16,0.729-1.992v-6.648h0.758V46.219z"/>
			<path fill="#FFFFFF" d="M129.927,40.776v8.683h-0.758v-9.987h0.758l5.766,8.654v-8.654h0.756v9.987h-0.756L129.927,40.776z"/>
			<path fill="#FFFFFF" d="M145.259,46.625c-0.17,0.897-0.557,1.608-1.164,2.133c-0.609,0.523-1.352,0.785-2.23,0.785
				c-0.982,0-1.814-0.342-2.498-1.024c-0.42-0.42-0.686-0.93-0.799-1.528c-0.084-0.421-0.127-1.263-0.127-2.525
				c0-1.262,0.043-2.108,0.127-2.538c0.113-0.589,0.379-1.095,0.799-1.515c0.684-0.684,1.516-1.024,2.498-1.024
				c0.887,0,1.635,0.262,2.244,0.785c0.598,0.515,0.98,1.226,1.15,2.133h-0.771c-0.15-0.692-0.455-1.239-0.912-1.642
				c-0.469-0.402-1.039-0.604-1.711-0.604c-0.748,0-1.381,0.258-1.895,0.771c-0.336,0.337-0.557,0.768-0.66,1.29
				c-0.074,0.412-0.111,1.192-0.111,2.343s0.037,1.932,0.111,2.343c0.104,0.524,0.324,0.954,0.66,1.291
				c0.514,0.514,1.146,0.771,1.895,0.771c0.672,0,1.248-0.2,1.725-0.603c0.467-0.402,0.775-0.949,0.926-1.642H145.259z"/>
			<path fill="#FFFFFF" d="M153.126,44.76h-5.203v4.699h-0.758v-9.987h0.758v4.615h5.203v-4.615h0.758v9.987h-0.758V44.76z"/>
			<path fill="#FFFFFF" d="M159.271,39.5l3.674,9.959h-0.812l-0.871-2.427h-0.014l-0.225-0.659l-0.35-0.996l-0.225-0.617
				l-1.514-4.25l-2.076,5.863h2.916l0.24,0.659h-3.396l-0.869,2.427h-0.812l3.66-9.959H159.271z"/>
			<polygon fill="#FFFFFF" points="117.802,44.255 113.601,44.255 113.601,40.146 118.902,40.146 118.902,39.472 112.843,39.472 
				112.843,49.459 113.601,49.459 113.601,44.928 118.06,44.928 			"/>
			<polygon fill="#FFFFFF" points="169.824,48.785 164.769,48.785 164.769,39.472 164.011,39.472 164.011,49.459 170.072,49.459 
				170.072,49.431 			"/>
		</g>
		<g>
			<path fill="#FFFFFF" d="M70.246,29.114c0,0,5.936,6,20.998,4.784C91.244,33.898,72.352,44.574,70.246,29.114z"/>
			<path fill="#FFFFFF" d="M72.116,40.781c15.088,2.105,15.088-6.751,30.958-6.883C94.369,38.699,81.88,54.549,72.116,40.781z"/>
			<path fill="#FFFFFF" d="M78.628,49.595c19.811-0.465,22.725-22.817,44.18-16.593C101.496,34.291,100.951,56.831,78.628,49.595z"
				/>
		</g>
		<g>
			<path fill="#FFFFFF" d="M110.013,26.529c-3.914,0-7.354-2.415-8.756-5.941c1.322,5.133,5.963,8.934,11.504,8.953
				c-0.201-0.271-1.074-1.462-2.115-3.032l-0.109,0.006C110.365,26.523,110.189,26.529,110.013,26.529z"/>
			<path fill="#FFFFFF" d="M110.013,8.033c-3.17,0-6.059,1.614-7.723,4.32c-0.82,1.634-1.24,3.405-1.24,5.252
				c0,0.402,0.021,0.808,0.062,1.205c0.816,4.314,4.66,7.438,9.084,7.352c-1.895-2.906-4.062-6.69-4.062-8.804
				c0-3.677,2.992-6.669,6.67-6.669c2.389,0,4.502,1.254,5.682,3.168C117.181,10.437,113.873,8.033,110.013,8.033z"/>
			<path fill="#FFFFFF" d="M119.195,18.202c-0.273,1.341-1.1,3.089-2.074,4.813c-1.736,3.077-3.938,6.074-4.273,6.525
				c6.572-0.023,11.895-5.357,11.895-11.936c0-6.592-5.346-11.937-11.938-11.937c-4.094,0-7.705,2.063-9.854,5.206
				c1.779-2.027,4.312-3.208,7.062-3.208c5.043,0,9.18,3.941,9.422,8.973C119.435,16.64,119.384,17.721,119.195,18.202z"/>
			<circle fill="#FFFFFF" cx="112.76" cy="17.605" r="4.456"/>
		</g>
	</g>
	<g>
		<path fill="#FFFFFF" d="M18.611,35.683c-0.038-0.032-0.076-0.063-0.111-0.092l-0.098-0.079l-0.099,0.079
			c-0.155,0.126-0.366,0.312-0.575,0.512l-0.221,0.208l0.299,0.058c0.152,0.028,0.291,0.099,0.404,0.207l0.066,0.062l0.086-0.027
			c0.078-0.022,0.158-0.036,0.24-0.036c0.105,0,0.207,0.02,0.303,0.059l0.085,0.035l0.072-0.058
			c0.031-0.025,0.066-0.048,0.102-0.068l0.149-0.087l-0.102-0.142C19.052,36.091,18.883,35.913,18.611,35.683"/>
		<path fill="#FFFFFF" d="M18.742,15.836c-0.038-0.031-0.076-0.063-0.11-0.093l-0.099-0.078l-0.098,0.08
			c-0.156,0.126-0.366,0.313-0.575,0.511l-0.222,0.209l0.299,0.056c0.152,0.03,0.291,0.102,0.404,0.208l0.065,0.062l0.087-0.026
			c0.079-0.025,0.158-0.036,0.242-0.036c0.104,0,0.205,0.02,0.302,0.059l0.085,0.034l0.071-0.058
			c0.031-0.025,0.065-0.048,0.102-0.069l0.15-0.086l-0.102-0.139C19.184,16.245,19.015,16.067,18.742,15.836"/>
		<path fill="#FFFFFF" d="M35.521,16.729l0.066,0.062l0.087-0.026c0.077-0.025,0.158-0.036,0.239-0.036
			c0.105,0,0.207,0.02,0.303,0.059l0.086,0.034l0.07-0.058c0.032-0.025,0.067-0.048,0.104-0.068l0.148-0.087l-0.101-0.139
			c-0.16-0.225-0.33-0.403-0.603-0.634c-0.039-0.031-0.076-0.063-0.111-0.093l-0.098-0.079l-0.098,0.081
			c-0.157,0.126-0.366,0.313-0.575,0.511l-0.222,0.209l0.3,0.056C35.269,16.551,35.408,16.622,35.521,16.729"/>
		<path fill="#FFFFFF" d="M36.039,35.683c-0.039-0.034-0.074-0.063-0.111-0.092l-0.098-0.079l-0.098,0.079
			c-0.157,0.126-0.366,0.312-0.574,0.512l-0.223,0.208l0.301,0.058c0.15,0.028,0.291,0.099,0.402,0.207l0.066,0.062l0.088-0.027
			c0.076-0.022,0.158-0.036,0.239-0.036c0.104,0,0.207,0.02,0.302,0.059l0.085,0.035l0.071-0.058
			c0.033-0.025,0.066-0.048,0.102-0.068l0.15-0.087l-0.1-0.142C36.48,36.091,36.312,35.913,36.039,35.683"/>
		<path fill="#FFFFFF" d="M34.196,17.527l-0.002,2.603v0.002l0.001,0.005c0.051,0.438,0.253,0.836,0.572,1.119
			c0.318,0.285,0.736,0.442,1.178,0.442h0.008c0.473-0.004,0.918-0.191,1.251-0.532c0.333-0.339,0.511-0.788,0.503-1.262v-2.377
			H34.196z M35.115,17.918c0.26,0,0.471,0.21,0.471,0.471c0,0.262-0.211,0.47-0.471,0.47s-0.469-0.208-0.469-0.47
			C34.646,18.128,34.855,17.918,35.115,17.918 M35.115,20.802c-0.26,0-0.469-0.21-0.469-0.468c0-0.262,0.209-0.472,0.469-0.472
			s0.471,0.21,0.471,0.472C35.585,20.592,35.375,20.802,35.115,20.802 M35.968,19.83c-0.261,0-0.471-0.211-0.471-0.471
			c0-0.261,0.21-0.468,0.471-0.468c0.26,0,0.469,0.207,0.469,0.468C36.437,19.619,36.228,19.83,35.968,19.83 M36.82,20.802
			c-0.261,0-0.471-0.21-0.471-0.468c0-0.262,0.21-0.472,0.471-0.472c0.26,0,0.47,0.21,0.47,0.472
			C37.29,20.592,37.08,20.802,36.82,20.802 M36.82,18.858c-0.261,0-0.471-0.208-0.471-0.47c0-0.261,0.21-0.471,0.471-0.471
			c0.26,0,0.47,0.21,0.47,0.471C37.29,18.65,37.08,18.858,36.82,18.858"/>
		<path fill="#FFFFFF" d="M16.894,37.373v2.602v0.004v0.005c0.05,0.438,0.253,0.836,0.572,1.121
			c0.318,0.283,0.736,0.438,1.178,0.438h0.007c0.474-0.003,0.917-0.19,1.251-0.53c0.334-0.341,0.512-0.79,0.504-1.262v-2.378H16.894
			z M17.813,37.766c0.26,0,0.472,0.209,0.472,0.471c0,0.258-0.212,0.469-0.472,0.469c-0.259,0-0.469-0.211-0.469-0.469
			C17.344,37.975,17.554,37.766,17.813,37.766 M17.813,40.648c-0.259,0-0.469-0.212-0.469-0.471s0.21-0.47,0.469-0.47
			c0.26,0,0.472,0.211,0.472,0.47S18.073,40.648,17.813,40.648 M18.666,39.676c-0.259,0-0.47-0.209-0.47-0.469
			c0-0.261,0.211-0.472,0.47-0.472c0.26,0,0.471,0.211,0.471,0.472C19.136,39.467,18.925,39.676,18.666,39.676 M19.517,40.648
			c-0.259,0-0.469-0.212-0.469-0.471s0.21-0.47,0.469-0.47c0.261,0,0.472,0.211,0.472,0.47S19.778,40.648,19.517,40.648
			 M19.517,38.705c-0.259,0-0.469-0.211-0.469-0.469c0-0.262,0.21-0.471,0.469-0.471c0.261,0,0.472,0.209,0.472,0.471
			C19.989,38.494,19.778,38.705,19.517,38.705"/>
		<path fill="#FFFFFF" d="M34.323,37.373l-0.002,2.602v0.004v0.005c0.052,0.438,0.254,0.836,0.573,1.121
			c0.317,0.283,0.735,0.438,1.178,0.438h0.008c0.473-0.003,0.918-0.19,1.25-0.53c0.334-0.341,0.512-0.79,0.504-1.262v-2.378H34.323z
			 M35.242,37.766c0.26,0,0.471,0.209,0.471,0.471c0,0.258-0.211,0.469-0.471,0.469c-0.259,0-0.47-0.211-0.47-0.469
			C34.772,37.975,34.983,37.766,35.242,37.766 M35.242,40.648c-0.259,0-0.47-0.212-0.47-0.471s0.211-0.47,0.47-0.47
			c0.26,0,0.471,0.211,0.471,0.47S35.501,40.648,35.242,40.648 M36.093,39.676c-0.259,0-0.469-0.209-0.469-0.469
			c0-0.261,0.21-0.472,0.469-0.472c0.262,0,0.471,0.211,0.471,0.472C36.564,39.467,36.355,39.676,36.093,39.676 M36.947,40.648
			c-0.26,0-0.471-0.212-0.471-0.471s0.211-0.47,0.471-0.47s0.47,0.211,0.47,0.47S37.207,40.648,36.947,40.648 M36.947,38.705
			c-0.26,0-0.471-0.211-0.471-0.469c0-0.262,0.211-0.471,0.471-0.471s0.47,0.209,0.47,0.471
			C37.417,38.494,37.207,38.705,36.947,38.705"/>
		<path fill="#FFFFFF" d="M17.021,17.527L17.02,20.13v0.002v0.005c0.051,0.438,0.255,0.836,0.573,1.119
			c0.317,0.285,0.735,0.442,1.178,0.442h0.006c0.475-0.004,0.919-0.191,1.252-0.532c0.334-0.339,0.512-0.788,0.504-1.262v-2.377
			H17.021z M17.94,17.918c0.26,0,0.472,0.21,0.472,0.471c0,0.262-0.212,0.47-0.472,0.47c-0.259,0-0.469-0.208-0.469-0.47
			C17.471,18.128,17.681,17.918,17.94,17.918 M17.94,20.802c-0.259,0-0.469-0.21-0.469-0.468c0-0.262,0.21-0.472,0.469-0.472
			c0.26,0,0.472,0.21,0.472,0.472C18.412,20.592,18.2,20.802,17.94,20.802 M18.792,19.83c-0.259,0-0.47-0.211-0.47-0.471
			c0-0.261,0.211-0.468,0.47-0.468c0.26,0,0.471,0.207,0.471,0.468C19.263,19.619,19.052,19.83,18.792,19.83 M19.644,20.802
			c-0.26,0-0.469-0.21-0.469-0.468c0-0.262,0.209-0.472,0.469-0.472c0.261,0,0.472,0.21,0.472,0.472
			C20.116,20.592,19.905,20.802,19.644,20.802 M19.644,18.858c-0.26,0-0.469-0.208-0.469-0.47c0-0.261,0.209-0.471,0.469-0.471
			c0.261,0,0.472,0.21,0.472,0.471C20.116,18.65,19.905,18.858,19.644,18.858"/>
		<path fill="#FFFFFF" d="M12.179,13.965v0.196c0,0-0.002,19.367-0.002,19.417c0,1.013,0.104,2.026,0.305,3.012
			c0.197,0.961,0.488,1.903,0.871,2.806c0.375,0.885,0.838,1.74,1.379,2.539c0.533,0.791,1.148,1.537,1.824,2.212
			c0.676,0.676,1.42,1.29,2.211,1.824c0.799,0.541,1.654,1.004,2.541,1.379c0.9,0.382,1.844,0.674,2.805,0.871
			c0.985,0.201,1.998,0.304,3.012,0.304c1.015,0,2.027-0.103,3.012-0.304c0.96-0.197,1.904-0.489,2.807-0.871
			c0.885-0.375,1.739-0.838,2.539-1.379c0.79-0.534,1.534-1.148,2.211-1.824c0.677-0.675,1.291-1.421,1.825-2.212
			c0.54-0.799,1.003-1.654,1.378-2.539c0.382-0.902,0.676-1.845,0.871-2.806c0.201-0.985,0.304-1.999,0.304-3.012V14.161v-0.196
			H12.179z M23.458,39.416c0.066,0.062,0.116,0.126,0.172,0.217c0.213,0.346,0.24,0.785,0.201,1.071
			c-0.037,0.001-0.068,0.003-0.1,0.003c-0.163,0-0.303-0.027-0.494-0.098c-0.266-0.094-0.422-0.197-0.6-0.384l-0.144-0.153
			l-0.104,0.181c-0.033,0.056-0.051,0.111-0.066,0.189c-0.031,0.175-0.004,0.326,0.086,0.455c-0.129-0.009-0.241-0.053-0.378-0.138
			c-0.245-0.152-0.375-0.346-0.411-0.606l-0.06-0.433l-0.229,0.374c-0.034,0.058-0.059,0.119-0.078,0.202
			c-0.019,0.088-0.025,0.158-0.018,0.229c-0.186-0.047-0.304-0.105-0.398-0.196l-0.299-0.286l0.029,0.403
			c0.001,0.02,0.001,0.039,0.001,0.058c0,0.306-0.179,0.585-0.456,0.712l-0.141,0.063l0.063,0.144
			c0.047,0.102,0.069,0.212,0.069,0.326c0,0.387-0.275,0.716-0.655,0.781l-0.212,0.038l0.102,0.189
			c0.065,0.126,0.102,0.266,0.102,0.409c0,0.477-0.389,0.866-0.867,0.866s-0.867-0.39-0.867-0.866c0-0.11,0.02-0.216,0.061-0.317
			l0.07-0.178l-0.189-0.032c-0.404-0.069-0.697-0.417-0.697-0.825c0-0.157,0.043-0.306,0.124-0.44l0.081-0.131l-0.129-0.081
			c-0.25-0.164-0.402-0.438-0.402-0.737c0-0.008,0-0.021,0.002-0.033l0.007-0.192l-0.19,0.034c-0.045,0.009-0.09,0.012-0.137,0.012
			c-0.094,0-0.184-0.016-0.271-0.049l-0.131-0.05l-0.062,0.126c-0.051,0.104-0.102,0.157-0.131,0.173
			c-0.076,0.041-0.137,0.066-0.218,0.074c-0.001-0.081-0.007-0.151-0.022-0.249c-0.008-0.05-0.015-0.092-0.023-0.129l-0.007-0.034
			l-0.284-0.014l-0.01,0.033c-0.035,0.118-0.084,0.231-0.141,0.327c-0.114,0.2-0.262,0.336-0.43,0.395
			c-0.044-0.077-0.089-0.155-0.131-0.232c0.016-0.141-0.017-0.27-0.1-0.386l-0.115-0.167l-0.046,0.055
			c-0.046-0.097-0.093-0.19-0.139-0.286l-0.048-0.101c-0.191-0.417-0.365-0.846-0.518-1.273c0.013-0.008,0.025-0.018,0.039-0.024
			c0.074-0.049,0.127-0.09,0.176-0.137l0.23-0.223l-0.316-0.046c-0.05-0.006-0.097-0.009-0.15-0.009
			c-0.023,0-0.052,0.002-0.082,0.002c-0.016,0.001-0.029,0.001-0.042,0.004c-0.022-0.07-0.042-0.139-0.063-0.209
			c0.055-0.049,0.117-0.098,0.197-0.15c0.193-0.125,0.342-0.148,0.566-0.184h0.002c0.023-0.003,0.049-0.008,0.076-0.01
			c0.135-0.021,0.217-0.031,0.337-0.031l0.142-0.003l0.012-0.141c0.014-0.141-0.012-0.25-0.076-0.331
			c-0.102-0.129-0.279-0.142-0.422-0.154c-0.049-0.001-0.098-0.006-0.141-0.015c-0.089-0.019-0.129-0.04-0.178-0.064
			c-0.042-0.024-0.089-0.048-0.162-0.068c-0.15-0.035-0.277-0.054-0.398-0.054c-0.089,0-0.172,0.01-0.258,0.027
			c-0.029-0.135-0.057-0.27-0.08-0.404c0,0,0-0.002,0.001-0.002c0.132-0.154,0.267-0.196,0.471-0.217
			c0.036-0.003,0.064-0.004,0.091-0.004c0.011,0,0.021,0.001,0.032,0.001l0.31,0.017l-0.17-0.257
			c-0.026-0.042-0.057-0.074-0.1-0.104c-0.094-0.068-0.262-0.094-0.389-0.094c-0.021,0-0.052,0.002-0.082,0.005
			c0.029-0.078,0.071-0.142,0.144-0.219c0.097-0.106,0.226-0.154,0.407-0.154c0.154,0,0.32,0.036,0.467,0.07
			c0.072,0.015,0.141,0.03,0.203,0.041c0.072,0.012,0.145,0.019,0.207,0.019c0.066,0,0.124-0.009,0.17-0.021l0.142-0.042
			l-0.034-0.147c0,0-0.002-0.004-0.002-0.007l-0.001-0.001c-0.022-0.103-0.064-0.152-0.183-0.224
			c-0.09-0.053-0.292-0.074-0.434-0.081c0.078-0.105,0.158-0.165,0.351-0.171c0.011-0.001,0.024-0.001,0.036-0.001
			c0.107,0,0.203,0.017,0.301,0.05l-0.032,0.017l0.144,0.029c0.079,0.039,0.159,0.085,0.252,0.14v0.001
			c0.03,0.016,0.06,0.033,0.09,0.053c0.048,0.025,0.086,0.061,0.125,0.09c0.054,0.046,0.115,0.098,0.199,0.126
			c0.044,0.015,0.084,0.023,0.125,0.023c0.025,0,0.049-0.004,0.076-0.009l0.141-0.022l-0.01-0.144
			c-0.006-0.092-0.038-0.171-0.104-0.258c-0.027-0.034-0.055-0.064-0.084-0.091c0.094-0.021,0.189-0.035,0.287-0.035
			c0.259,0,0.493,0.084,0.677,0.248c0.116,0.101,0.194,0.281,0.23,0.532c0.027,0.178,0.034,0.393,0.019,0.636l-0.027,0.422
			l0.295-0.303c0.149-0.153,0.309-0.305,0.535-0.5c0.074-0.064,0.141-0.12,0.201-0.172l0.182-0.151l-0.211-0.108
			c-0.062-0.031-0.131-0.066-0.205-0.097l0.344-0.153c0.071,0.049,0.135,0.095,0.195,0.139l0.09,0.066l0.091-0.064
			c0.081-0.058,0.169-0.114,0.275-0.183c0.069,0.01,0.115,0.026,0.188,0.06c0.058,0.027,0.121,0.068,0.176,0.115
			c-0.076,0.04-0.176,0.095-0.277,0.155l-0.193,0.112l0.174,0.144c0.076,0.062,0.163,0.135,0.26,0.218
			c0.18,0.154,0.303,0.263,0.426,0.377l0.283,0.265l-0.021-0.386c-0.011-0.222-0.003-0.402,0.023-0.494l0.004-0.013
			c0.086-0.312,0.145-0.521,0.395-0.694c0.141-0.099,0.43-0.265,0.774-0.265c0.056,0,0.11,0.002,0.163,0.012
			c-0.018,0.029-0.035,0.062-0.055,0.1c-0.055,0.114-0.08,0.24-0.072,0.371l0.018,0.353l0.249-0.25
			c0.185-0.19,0.399-0.298,0.697-0.348c0.085-0.015,0.161-0.021,0.232-0.021c0.157,0,0.296,0.033,0.44,0.104
			c-0.042,0.006-0.088,0.016-0.139,0.027c-0.028,0.007-0.054,0.012-0.079,0.016c-0.081,0.011-0.163,0.024-0.246,0.101
			c-0.022,0.021-0.04,0.04-0.057,0.061l-0.26,0.333l0.413-0.084c0.077-0.014,0.146-0.021,0.247-0.021h0.014
			c0.052,0.002,0.095,0.009,0.141,0.018c0.046,0.012,0.101,0.026,0.166,0.026c0.013,0,0.025-0.003,0.038-0.003
			c0.061-0.005,0.105-0.019,0.146-0.032c0.036-0.01,0.067-0.021,0.108-0.023c0.021,0,0.042,0,0.06,0c0.175,0,0.279,0.037,0.39,0.139
			c0.081,0.076,0.13,0.146,0.153,0.232c-0.039-0.015-0.082-0.025-0.135-0.033c-0.041-0.005-0.077-0.009-0.109-0.009
			c-0.045,0-0.086,0.005-0.128,0.017l-0.411,0.103l0.379,0.188c0.039,0.02,0.08,0.039,0.133,0.07
			c0.042,0.021,0.078,0.038,0.112,0.055c0.075,0.034,0.13,0.061,0.194,0.121c0.154,0.144,0.225,0.276,0.239,0.462
			c-0.121-0.021-0.224-0.032-0.327-0.032s-0.212,0.011-0.35,0.032c-0.48,0.076-0.791,0.231-1.109,0.547l-0.239,0.236l0.337,0.027
			c0.217,0.019,0.482,0.073,0.711,0.147c0.277,0.09,0.457,0.229,0.604,0.476c-0.056-0.01-0.11-0.015-0.172-0.015
			c-0.03,0-0.063,0.002-0.101,0.004c-0.091,0.007-0.156,0.017-0.222,0.03l-0.525,0.135l0.517,0.166
			c0.208,0.067,0.47,0.175,0.643,0.396c0.144,0.188,0.213,0.339,0.235,0.534c-0.064-0.047-0.141-0.078-0.236-0.105
			c-0.066-0.017-0.117-0.025-0.168-0.031l-0.432-0.029L23.458,39.416z M18.536,27.097c0.493-0.131,1.097-0.391,1.544-0.658
			c0.03,0.064,0.06,0.129,0.089,0.198c0.102,0.234,0.194,0.49,0.276,0.768c-0.404,0.366-1.201,0.887-1.929,1.101
			c-0.54,0.158-1.274,0.247-1.881,0.236c0.079-0.517,0.188-0.995,0.321-1.427h0.01C17.282,27.314,17.839,27.28,18.536,27.097
			 M17.113,26.866c0.038-0.102,0.08-0.201,0.123-0.298c0.209-0.469,0.451-0.831,0.715-1.076c0.246-0.225,0.502-0.337,0.764-0.337
			c0.254,0,0.506,0.117,0.748,0.358c0.142,0.141,0.277,0.317,0.406,0.531c-0.412,0.249-0.982,0.497-1.446,0.62
			C17.867,26.811,17.412,26.857,17.113,26.866 M16.728,29.188c0.628,0,1.364-0.097,1.914-0.257c0.723-0.214,1.469-0.678,1.935-1.053
			c0.109,0.44,0.198,0.92,0.265,1.426c-0.577,0.438-1.635,0.932-2.698,1.102c-0.533,0.087-1.116,0.108-1.667,0.066
			c0.016-0.448,0.049-0.879,0.098-1.286C16.625,29.188,16.675,29.188,16.728,29.188 M17.034,30.939c0.351,0,0.751-0.022,1.179-0.092
			c0.564-0.09,1.164-0.272,1.736-0.524c0.353-0.155,0.678-0.331,0.949-0.513c0.025,0.272,0.047,0.549,0.06,0.83
			c0.017,0.355,0.024,0.685,0.029,0.976c-0.521,0.229-1.457,0.41-2.257,0.426c-0.926,0.02-1.751-0.167-2.281-0.37
			c0.004-0.235,0.01-0.488,0.016-0.753C16.634,30.934,16.826,30.939,17.034,30.939 M17.236,32.355
			c0.446,0.088,0.901,0.133,1.354,0.133c0.05,0,0.1,0,0.149-0.003c0.777-0.016,1.658-0.174,2.249-0.391
			c-0.001,0.21-0.003,0.385-0.007,0.514c-0.32,0.154-1.188,0.51-2.283,0.51c-0.841,0-1.445-0.156-1.806-0.287
			c-0.21-0.076-0.358-0.152-0.452-0.205c0-0.146,0.001-0.308,0.002-0.481C16.686,32.228,16.955,32.299,17.236,32.355 M23.875,19.333
			c-0.064-0.019-0.117-0.029-0.168-0.031l-0.432-0.031l0.314,0.3c0.066,0.062,0.116,0.125,0.172,0.217
			c0.213,0.345,0.242,0.784,0.201,1.071c-0.037,0-0.068,0.001-0.101,0.001c-0.161,0-0.302-0.027-0.493-0.095
			c-0.266-0.098-0.422-0.195-0.6-0.387l-0.144-0.152l-0.104,0.182c-0.031,0.056-0.051,0.108-0.066,0.187
			c-0.031,0.175-0.004,0.326,0.086,0.458c-0.129-0.01-0.24-0.051-0.378-0.138c-0.245-0.151-0.375-0.345-0.411-0.604l-0.06-0.434
			l-0.228,0.373c-0.035,0.058-0.059,0.12-0.08,0.202c-0.02,0.087-0.025,0.157-0.018,0.229c-0.186-0.046-0.303-0.106-0.398-0.195
			L20.67,20.2l0.028,0.4c0.001,0.021,0.002,0.038,0.002,0.058c0,0.304-0.18,0.585-0.458,0.713l-0.14,0.065l0.063,0.142
			c0.047,0.102,0.069,0.212,0.069,0.325c0,0.386-0.275,0.718-0.655,0.782l-0.212,0.036l0.102,0.189
			c0.066,0.127,0.102,0.268,0.102,0.408c0,0.479-0.388,0.87-0.867,0.87c-0.477,0-0.867-0.392-0.867-0.87
			c0-0.107,0.021-0.214,0.061-0.315l0.07-0.179l-0.189-0.03c-0.403-0.069-0.697-0.417-0.697-0.827c0-0.155,0.043-0.307,0.124-0.438
			l0.081-0.13l-0.129-0.083c-0.25-0.162-0.4-0.439-0.4-0.736v-0.033l0.007-0.192l-0.19,0.032c-0.045,0.01-0.09,0.012-0.137,0.012
			c-0.094,0-0.184-0.014-0.271-0.047l-0.131-0.049l-0.062,0.124c-0.051,0.103-0.101,0.157-0.13,0.174
			c-0.077,0.042-0.137,0.066-0.218,0.074c-0.002-0.082-0.008-0.151-0.023-0.251c-0.008-0.049-0.015-0.09-0.021-0.127l-0.009-0.035
			l-0.284-0.013l-0.01,0.034c-0.035,0.115-0.084,0.229-0.141,0.328c-0.127,0.218-0.292,0.359-0.48,0.407
			c-0.072,0.019-0.129,0.029-0.184,0.031c0.021-0.031,0.04-0.066,0.057-0.108c0.082-0.199,0.063-0.391-0.051-0.557l-0.115-0.166
			l-0.132,0.154c-0.097,0.112-0.179,0.18-0.325,0.27c-0.235,0.137-0.431,0.197-0.652,0.197c-0.059,0-0.121-0.004-0.189-0.011
			c-0.074-0.353,0.021-0.675,0.116-0.886c0.048-0.106,0.089-0.157,0.167-0.25l0.01-0.013c0.057-0.069,0.096-0.113,0.143-0.156
			l0.258-0.241l-0.353-0.027c-0.016,0-0.03-0.004-0.046-0.004c-0.104,0-0.205,0.03-0.315,0.094
			c-0.087,0.048-0.151,0.098-0.204,0.164c-0.047-0.16-0.024-0.312,0.067-0.479c0.065-0.118,0.13-0.164,0.257-0.254
			c0.07-0.05,0.135-0.064,0.217-0.084c0.081-0.02,0.174-0.04,0.271-0.104c0.074-0.052,0.125-0.091,0.173-0.139l0.231-0.221
			l-0.316-0.044c-0.05-0.009-0.097-0.012-0.15-0.012c-0.023,0-0.052,0.003-0.082,0.003c-0.118,0.005-0.207,0.018-0.295,0.044
			c0.086-0.163,0.199-0.278,0.387-0.398c0.193-0.127,0.34-0.149,0.566-0.185c0.025-0.004,0.051-0.008,0.078-0.011
			c0.136-0.022,0.217-0.029,0.337-0.029l0.142-0.004l0.012-0.141c0.014-0.139-0.012-0.252-0.074-0.33
			c-0.104-0.129-0.28-0.144-0.424-0.154c-0.049-0.004-0.098-0.01-0.14-0.017c-0.089-0.019-0.13-0.04-0.178-0.065
			c-0.043-0.021-0.089-0.049-0.163-0.065c-0.15-0.037-0.277-0.056-0.398-0.056c-0.158,0-0.308,0.031-0.48,0.095
			c-0.027-0.177,0.018-0.321,0.144-0.473c0.132-0.155,0.267-0.196,0.471-0.218c0.052-0.004,0.087-0.007,0.123-0.004l0.31,0.019
			l-0.17-0.26c-0.025-0.039-0.057-0.071-0.1-0.102c-0.094-0.069-0.262-0.093-0.387-0.093c-0.023,0-0.054,0-0.084,0.003
			c0.029-0.078,0.071-0.14,0.144-0.219c0.097-0.105,0.226-0.153,0.407-0.153c0.154,0,0.32,0.036,0.468,0.069
			c0.072,0.018,0.14,0.03,0.203,0.041c0.071,0.012,0.144,0.019,0.206,0.019c0.067,0,0.124-0.007,0.17-0.021l0.142-0.042
			l-0.033-0.145c-0.001-0.002-0.002-0.006-0.003-0.009l-0.001-0.003c-0.022-0.103-0.064-0.15-0.183-0.222
			c-0.09-0.055-0.291-0.076-0.434-0.082c0.078-0.104,0.158-0.165,0.351-0.171c0.011,0,0.024-0.001,0.036-0.001
			c0.109,0,0.203,0.017,0.301,0.051l-0.032,0.017l0.144,0.03c0.079,0.036,0.159,0.083,0.252,0.136
			c0.029,0.021,0.06,0.039,0.09,0.055c0.048,0.027,0.086,0.062,0.125,0.092c0.054,0.046,0.116,0.097,0.199,0.125
			c0.045,0.015,0.084,0.021,0.125,0.021c0.025,0,0.049-0.002,0.076-0.007l0.141-0.022l-0.009-0.143
			c-0.007-0.095-0.039-0.17-0.104-0.257c-0.027-0.038-0.055-0.066-0.084-0.093c0.094-0.023,0.189-0.034,0.287-0.034
			c0.259,0,0.493,0.086,0.677,0.247c0.116,0.102,0.194,0.282,0.231,0.533c0.027,0.179,0.033,0.391,0.019,0.637l-0.028,0.422
			l0.295-0.305c0.149-0.154,0.309-0.305,0.537-0.501c0.073-0.063,0.139-0.12,0.199-0.171l0.182-0.15l-0.21-0.108
			c-0.062-0.031-0.132-0.062-0.206-0.098l0.344-0.153c0.071,0.05,0.135,0.096,0.195,0.139l0.09,0.064l0.091-0.062
			c0.081-0.058,0.169-0.115,0.275-0.185c0.069,0.013,0.115,0.026,0.188,0.061c0.059,0.026,0.121,0.069,0.177,0.115
			c-0.077,0.041-0.177,0.096-0.278,0.156l-0.193,0.11l0.174,0.144c0.078,0.064,0.163,0.137,0.261,0.22
			c0.179,0.152,0.302,0.262,0.425,0.377l0.283,0.263l-0.02-0.384c-0.013-0.222-0.004-0.401,0.021-0.495l0.004-0.009
			c0.087-0.317,0.145-0.523,0.395-0.698c0.141-0.101,0.43-0.267,0.774-0.267c0.056,0,0.11,0.006,0.165,0.014
			c-0.02,0.029-0.037,0.061-0.057,0.101c-0.055,0.114-0.08,0.241-0.072,0.372l0.019,0.352l0.248-0.253
			c0.185-0.186,0.399-0.292,0.698-0.346c0.084-0.013,0.16-0.021,0.232-0.021c0.156,0,0.295,0.032,0.439,0.104
			c-0.042,0.008-0.087,0.016-0.139,0.028c-0.027,0.006-0.054,0.01-0.079,0.014c-0.08,0.014-0.163,0.025-0.245,0.104
			c-0.023,0.021-0.041,0.039-0.057,0.061l-0.261,0.331l0.414-0.082c0.076-0.016,0.146-0.022,0.246-0.022h0.015
			c0.053,0,0.096,0.009,0.14,0.019c0.046,0.011,0.102,0.024,0.167,0.024c0.012,0,0.024-0.001,0.037-0.004
			c0.061-0.002,0.105-0.017,0.146-0.03c0.036-0.011,0.067-0.021,0.108-0.022c0.021-0.001,0.042-0.001,0.061-0.001
			c0.174,0,0.278,0.04,0.39,0.14c0.081,0.075,0.129,0.146,0.152,0.231c-0.039-0.016-0.082-0.025-0.134-0.031
			c-0.042-0.005-0.077-0.01-0.11-0.01c-0.045,0-0.086,0.005-0.128,0.016l-0.411,0.103l0.379,0.188c0.039,0.019,0.08,0.04,0.135,0.07
			c0.041,0.023,0.076,0.038,0.11,0.055c0.075,0.037,0.13,0.061,0.196,0.123c0.152,0.141,0.223,0.273,0.237,0.462
			c-0.12-0.024-0.224-0.035-0.327-0.035s-0.212,0.011-0.35,0.033c-0.48,0.077-0.791,0.232-1.107,0.545l-0.241,0.239l0.339,0.027
			c0.215,0.019,0.48,0.073,0.709,0.147c0.277,0.09,0.458,0.23,0.604,0.475c-0.055-0.01-0.11-0.015-0.17-0.015
			c-0.031,0-0.065,0.002-0.103,0.005c-0.091,0.005-0.156,0.014-0.222,0.032l-0.525,0.134l0.517,0.164
			c0.208,0.067,0.47,0.174,0.644,0.396c0.143,0.187,0.213,0.339,0.235,0.534C24.046,19.391,23.97,19.358,23.875,19.333
			 M25.643,16.943c0.21-0.472,0.452-0.833,0.716-1.076c0.246-0.226,0.502-0.34,0.764-0.34c0.254,0,0.506,0.12,0.747,0.358
			c0.144,0.141,0.278,0.319,0.407,0.531c-0.412,0.251-0.982,0.498-1.445,0.621c-0.556,0.147-1.012,0.192-1.311,0.202
			C25.56,17.137,25.601,17.038,25.643,16.943 M25.365,17.688h0.01c0.315,0,0.873-0.035,1.57-0.218
			c0.491-0.131,1.096-0.391,1.542-0.657c0.03,0.061,0.062,0.126,0.089,0.195c0.102,0.233,0.194,0.492,0.279,0.768
			c-0.406,0.366-1.203,0.887-1.931,1.1c-0.541,0.158-1.275,0.251-1.882,0.239C25.123,18.597,25.231,18.12,25.365,17.688
			 M24.981,19.559c0.052,0.003,0.103,0.003,0.154,0.003c0.63,0,1.364-0.097,1.915-0.258c0.724-0.212,1.469-0.676,1.934-1.055
			c0.109,0.443,0.199,0.924,0.266,1.43c-0.578,0.439-1.635,0.932-2.699,1.101c-0.531,0.088-1.115,0.108-1.666,0.068
			C24.901,20.398,24.933,19.967,24.981,19.559 M24.873,21.292c0.17,0.014,0.361,0.021,0.568,0.021c0.353,0,0.752-0.022,1.181-0.091
			c0.563-0.092,1.163-0.273,1.735-0.524c0.353-0.156,0.678-0.333,0.949-0.515c0.026,0.272,0.046,0.548,0.061,0.831
			c0.015,0.354,0.023,0.684,0.027,0.975c-0.52,0.227-1.457,0.408-2.256,0.424c-0.924,0.021-1.752-0.165-2.281-0.368
			C24.86,21.809,24.865,21.557,24.873,21.292 M29.39,42.783c-0.32,0.152-1.188,0.511-2.283,0.511c-0.84,0-1.445-0.156-1.805-0.288
			c-0.209-0.077-0.359-0.151-0.452-0.205c0-0.147,0-0.309,0.002-0.481c0.241,0.085,0.51,0.155,0.792,0.211
			c0.445,0.088,0.9,0.135,1.354,0.135c0.051,0,0.101-0.004,0.149-0.004c0.777-0.017,1.659-0.177,2.249-0.393
			C29.396,42.48,29.394,42.655,29.39,42.783 M26.945,37.271c0.491-0.131,1.096-0.391,1.542-0.658c0.03,0.062,0.062,0.13,0.089,0.199
			c0.102,0.234,0.194,0.49,0.279,0.766c-0.406,0.365-1.203,0.888-1.931,1.102c-0.541,0.157-1.275,0.247-1.882,0.237
			c0.08-0.519,0.188-0.996,0.322-1.429h0.01C25.69,37.488,26.248,37.456,26.945,37.271 M25.521,37.043
			c0.039-0.104,0.08-0.204,0.122-0.299c0.21-0.469,0.452-0.832,0.716-1.076c0.246-0.227,0.502-0.34,0.764-0.34
			c0.254,0,0.506,0.122,0.747,0.359c0.144,0.143,0.278,0.319,0.407,0.532c-0.412,0.25-0.982,0.498-1.445,0.619
			C26.276,36.986,25.82,37.033,25.521,37.043 M25.135,39.363c0.63,0,1.364-0.097,1.915-0.255c0.724-0.214,1.469-0.68,1.934-1.057
			c0.109,0.442,0.199,0.922,0.266,1.43c-0.578,0.438-1.635,0.931-2.699,1.101c-0.531,0.086-1.115,0.107-1.666,0.066
			c0.017-0.449,0.049-0.878,0.097-1.287C25.033,39.363,25.083,39.363,25.135,39.363 M25.441,41.115c0.353,0,0.752-0.024,1.181-0.093
			c0.563-0.091,1.163-0.271,1.735-0.523c0.353-0.154,0.678-0.331,0.949-0.512c0.026,0.271,0.046,0.547,0.061,0.828
			c0.015,0.355,0.023,0.685,0.027,0.974c-0.52,0.229-1.457,0.409-2.256,0.426c-0.924,0.021-1.752-0.166-2.281-0.367
			c0.003-0.238,0.008-0.489,0.016-0.754C25.042,41.105,25.234,41.115,25.441,41.115 M29.39,32.608
			c-0.32,0.154-1.188,0.51-2.283,0.51c-0.84,0-1.445-0.156-1.805-0.287c-0.209-0.076-0.359-0.152-0.452-0.205
			c0-0.146,0-0.308,0.002-0.481c0.241,0.083,0.51,0.154,0.792,0.211c0.445,0.088,0.9,0.133,1.354,0.133c0.051,0,0.101,0,0.149-0.003
			c0.777-0.016,1.659-0.174,2.249-0.391C29.396,32.305,29.394,32.479,29.39,32.608 M26.945,27.097
			c0.491-0.131,1.096-0.391,1.542-0.658c0.03,0.064,0.062,0.129,0.089,0.198c0.102,0.234,0.194,0.49,0.279,0.768
			c-0.406,0.366-1.203,0.887-1.931,1.101c-0.541,0.158-1.275,0.247-1.882,0.236c0.08-0.517,0.188-0.995,0.322-1.427h0.01
			C25.69,27.314,26.248,27.28,26.945,27.097 M25.521,26.866c0.039-0.102,0.08-0.201,0.122-0.298c0.21-0.469,0.452-0.831,0.716-1.076
			c0.246-0.225,0.502-0.337,0.764-0.337c0.254,0,0.506,0.117,0.747,0.358c0.144,0.141,0.278,0.317,0.407,0.531
			c-0.412,0.249-0.982,0.497-1.445,0.62C26.276,26.811,25.82,26.857,25.521,26.866 M25.135,29.188c0.63,0,1.364-0.097,1.915-0.257
			c0.724-0.214,1.469-0.678,1.934-1.053c0.109,0.44,0.199,0.92,0.266,1.426c-0.578,0.438-1.635,0.932-2.699,1.102
			c-0.531,0.087-1.115,0.108-1.666,0.066c0.017-0.448,0.049-0.879,0.097-1.286C25.033,29.188,25.083,29.188,25.135,29.188
			 M25.441,30.939c0.353,0,0.752-0.022,1.181-0.092c0.563-0.09,1.163-0.272,1.735-0.524c0.353-0.155,0.678-0.331,0.949-0.513
			c0.026,0.272,0.046,0.549,0.061,0.83c0.015,0.355,0.023,0.685,0.027,0.976c-0.52,0.229-1.457,0.41-2.256,0.426
			c-0.924,0.02-1.752-0.167-2.281-0.37c0.003-0.235,0.008-0.488,0.016-0.753C25.042,30.934,25.234,30.939,25.441,30.939
			 M29.39,22.98c-0.32,0.155-1.188,0.51-2.283,0.51c-0.84,0-1.445-0.157-1.805-0.285c-0.209-0.076-0.359-0.152-0.452-0.207
			c0-0.146,0-0.307,0.002-0.48c0.241,0.084,0.51,0.153,0.792,0.211c0.445,0.09,0.9,0.133,1.354,0.133c0.051,0,0.101,0,0.149-0.002
			c0.777-0.017,1.659-0.174,2.249-0.391C29.396,22.678,29.394,22.853,29.39,22.98 M30.085,19.031
			c0.066-0.118,0.131-0.164,0.258-0.254c0.07-0.05,0.135-0.064,0.216-0.084c0.083-0.02,0.173-0.04,0.271-0.104
			c0.074-0.052,0.127-0.091,0.176-0.139l0.23-0.221l-0.317-0.044c-0.049-0.009-0.095-0.012-0.149-0.012
			c-0.025,0-0.052,0.003-0.083,0.003c-0.116,0.005-0.206,0.018-0.294,0.044c0.087-0.163,0.199-0.278,0.387-0.398
			c0.193-0.127,0.342-0.149,0.566-0.185h0.005c0.023-0.004,0.048-0.008,0.072-0.011c0.137-0.022,0.218-0.029,0.339-0.029l0.14-0.004
			l0.013-0.141c0.012-0.139-0.014-0.252-0.075-0.33c-0.102-0.129-0.28-0.144-0.423-0.154c-0.048-0.004-0.098-0.01-0.14-0.017
			c-0.089-0.019-0.13-0.04-0.179-0.065c-0.041-0.021-0.088-0.049-0.161-0.065c-0.151-0.037-0.278-0.056-0.399-0.056
			c-0.157,0-0.308,0.031-0.48,0.095c-0.027-0.177,0.018-0.321,0.143-0.473c0.133-0.155,0.268-0.196,0.473-0.218
			c0.051-0.004,0.086-0.007,0.121-0.004l0.311,0.019l-0.17-0.26c-0.025-0.039-0.059-0.071-0.1-0.102
			c-0.094-0.069-0.262-0.093-0.389-0.093c-0.021,0-0.051,0-0.082,0.003c0.029-0.078,0.071-0.14,0.144-0.219
			c0.097-0.105,0.226-0.153,0.407-0.153c0.154,0,0.32,0.036,0.467,0.069c0.072,0.018,0.142,0.03,0.203,0.041
			c0.073,0.012,0.145,0.019,0.206,0.019c0.067,0,0.125-0.007,0.171-0.021l0.143-0.042l-0.035-0.145l-0.004-0.012
			c-0.021-0.103-0.062-0.15-0.181-0.222c-0.091-0.055-0.292-0.076-0.435-0.082c0.079-0.104,0.158-0.165,0.352-0.171
			c0.011,0,0.022-0.001,0.035-0.001c0.108,0,0.203,0.017,0.302,0.051l-0.034,0.015l0.144,0.032c0.08,0.036,0.161,0.083,0.253,0.136
			l0.006,0.006c0.027,0.016,0.057,0.033,0.084,0.049c0.047,0.027,0.086,0.062,0.125,0.092c0.055,0.046,0.116,0.097,0.199,0.125
			c0.043,0.015,0.084,0.021,0.126,0.021c0.023,0,0.048-0.002,0.076-0.007l0.14-0.022l-0.01-0.143
			c-0.006-0.095-0.037-0.17-0.103-0.257c-0.027-0.038-0.056-0.066-0.085-0.093c0.094-0.023,0.189-0.034,0.287-0.034
			c0.259,0,0.492,0.086,0.676,0.247c0.115,0.102,0.194,0.282,0.232,0.533c0.027,0.179,0.033,0.391,0.018,0.637l-0.026,0.422
			l0.294-0.305c0.148-0.152,0.31-0.305,0.537-0.501c0.072-0.063,0.139-0.118,0.199-0.171l0.182-0.15l-0.21-0.108
			c-0.063-0.031-0.131-0.062-0.206-0.098l0.344-0.153c0.071,0.05,0.136,0.096,0.195,0.139l0.09,0.064l0.091-0.062
			c0.081-0.058,0.17-0.115,0.275-0.185c0.069,0.013,0.116,0.026,0.188,0.061c0.059,0.026,0.121,0.069,0.176,0.115
			c-0.076,0.041-0.176,0.096-0.277,0.156l-0.193,0.11l0.174,0.144c0.077,0.064,0.164,0.135,0.261,0.22
			c0.179,0.152,0.302,0.262,0.425,0.377l0.283,0.263l-0.021-0.384c-0.01-0.222-0.002-0.401,0.023-0.495l0.003-0.009
			c0.088-0.317,0.146-0.523,0.396-0.698c0.141-0.101,0.43-0.267,0.775-0.267c0.055,0,0.109,0.006,0.163,0.014
			c-0.019,0.029-0.036,0.061-0.056,0.101c-0.055,0.114-0.08,0.241-0.072,0.372l0.02,0.352l0.248-0.253
			c0.184-0.186,0.399-0.292,0.697-0.346c0.084-0.013,0.158-0.021,0.232-0.021c0.154,0,0.296,0.032,0.44,0.104
			c-0.043,0.008-0.089,0.016-0.14,0.028c-0.028,0.006-0.053,0.01-0.08,0.014c-0.079,0.014-0.162,0.025-0.244,0.104
			c-0.022,0.021-0.041,0.039-0.057,0.061l-0.26,0.331l0.412-0.082c0.078-0.016,0.146-0.022,0.247-0.022h0.015
			c0.052,0,0.094,0.009,0.139,0.019c0.048,0.011,0.103,0.024,0.168,0.024c0.012,0,0.025-0.001,0.037-0.004
			c0.061-0.002,0.105-0.017,0.146-0.03c0.036-0.011,0.066-0.021,0.108-0.022c0.021-0.001,0.042-0.001,0.06-0.001
			c0.175,0,0.279,0.04,0.391,0.14c0.08,0.075,0.129,0.146,0.152,0.231c-0.039-0.016-0.082-0.025-0.135-0.031
			c-0.04-0.005-0.076-0.01-0.109-0.01c-0.045,0-0.087,0.005-0.129,0.016l-0.41,0.103l0.378,0.188c0.04,0.019,0.081,0.04,0.135,0.07
			c0.042,0.023,0.077,0.038,0.111,0.055c0.075,0.037,0.13,0.061,0.195,0.123c0.153,0.141,0.224,0.273,0.239,0.462
			c-0.123-0.024-0.225-0.035-0.328-0.035s-0.211,0.011-0.35,0.033c-0.48,0.077-0.791,0.232-1.109,0.545l-0.24,0.239l0.338,0.027
			c0.217,0.019,0.482,0.073,0.711,0.147c0.277,0.09,0.457,0.23,0.604,0.475c-0.055-0.01-0.109-0.015-0.171-0.015
			c-0.03,0-0.063,0.002-0.102,0.005c-0.091,0.005-0.157,0.014-0.222,0.032l-0.525,0.134l0.517,0.164
			c0.208,0.067,0.47,0.174,0.644,0.396c0.143,0.187,0.213,0.339,0.235,0.534c-0.067-0.047-0.142-0.079-0.237-0.104
			c-0.066-0.019-0.117-0.029-0.168-0.031l-0.434-0.031l0.316,0.3c0.066,0.062,0.115,0.125,0.172,0.217
			c0.213,0.345,0.242,0.784,0.201,1.071c-0.036,0-0.068,0.001-0.1,0.001c-0.164,0-0.302-0.027-0.494-0.095
			c-0.266-0.098-0.422-0.195-0.6-0.387l-0.143-0.152L39.7,20.407c-0.032,0.056-0.05,0.108-0.065,0.187
			c-0.032,0.175-0.004,0.326,0.086,0.458c-0.129-0.01-0.24-0.051-0.377-0.138c-0.246-0.151-0.377-0.345-0.412-0.604l-0.061-0.434
			l-0.229,0.373c-0.033,0.058-0.059,0.12-0.078,0.202c-0.02,0.087-0.025,0.157-0.018,0.229c-0.186-0.046-0.303-0.106-0.398-0.196
			L37.849,20.2l0.029,0.4c0,0.021,0,0.038,0,0.058c0,0.304-0.178,0.585-0.455,0.713l-0.142,0.065l0.065,0.142
			c0.045,0.102,0.069,0.212,0.069,0.325c0,0.386-0.276,0.718-0.657,0.782l-0.213,0.036l0.104,0.189
			c0.066,0.127,0.102,0.268,0.102,0.408c0,0.479-0.389,0.87-0.867,0.87s-0.867-0.392-0.867-0.87c0-0.107,0.021-0.214,0.061-0.315
			l0.07-0.179l-0.189-0.03c-0.404-0.069-0.696-0.417-0.696-0.827c0-0.155,0.042-0.307,0.124-0.438l0.081-0.13l-0.13-0.083
			c-0.25-0.162-0.401-0.439-0.401-0.736c0-0.009,0-0.021,0.001-0.033l0.008-0.192l-0.191,0.032c-0.045,0.01-0.09,0.012-0.137,0.012
			c-0.094,0-0.184-0.014-0.271-0.047l-0.131-0.049l-0.063,0.124c-0.052,0.103-0.102,0.157-0.131,0.174
			c-0.076,0.042-0.136,0.066-0.217,0.074c-0.002-0.082-0.009-0.151-0.023-0.251c-0.008-0.049-0.016-0.09-0.022-0.127l-0.007-0.035
			l-0.285-0.013l-0.01,0.034c-0.037,0.115-0.084,0.229-0.141,0.328c-0.126,0.218-0.293,0.359-0.48,0.407
			c-0.072,0.019-0.129,0.029-0.183,0.031c0.021-0.031,0.039-0.066,0.056-0.108c0.081-0.199,0.064-0.391-0.052-0.557l-0.116-0.166
			l-0.131,0.154c-0.096,0.112-0.178,0.18-0.324,0.27c-0.234,0.137-0.43,0.197-0.653,0.197c-0.06,0-0.122-0.004-0.188-0.011
			c-0.074-0.353,0.021-0.675,0.115-0.886c0.049-0.106,0.09-0.157,0.166-0.25l0.012-0.013c0.056-0.069,0.096-0.113,0.143-0.156
			l0.259-0.241l-0.354-0.027c-0.122-0.01-0.233,0.017-0.36,0.09c-0.087,0.048-0.152,0.098-0.203,0.164
			C29.972,19.35,29.995,19.197,30.085,19.031 M35.738,27.097c0.492-0.131,1.096-0.391,1.544-0.658
			c0.03,0.064,0.06,0.129,0.089,0.198c0.101,0.234,0.194,0.49,0.277,0.768c-0.406,0.366-1.202,0.887-1.93,1.101
			c-0.541,0.158-1.275,0.247-1.882,0.236c0.08-0.517,0.188-0.995,0.323-1.427h0.009C34.484,27.314,35.042,27.28,35.738,27.097
			 M34.314,26.866c0.039-0.102,0.08-0.201,0.123-0.298c0.211-0.469,0.451-0.831,0.717-1.076c0.244-0.225,0.501-0.337,0.764-0.337
			c0.252,0,0.505,0.117,0.746,0.358c0.143,0.141,0.279,0.317,0.406,0.531c-0.412,0.249-0.981,0.497-1.445,0.62
			C35.07,26.811,34.613,26.857,34.314,26.866 M33.929,29.188c0.631,0,1.365-0.097,1.914-0.257c0.725-0.214,1.47-0.678,1.935-1.053
			c0.11,0.44,0.198,0.92,0.265,1.426c-0.577,0.438-1.635,0.932-2.697,1.102c-0.533,0.087-1.115,0.108-1.667,0.066
			c0.017-0.448,0.049-0.879,0.097-1.286C33.827,29.188,33.878,29.188,33.929,29.188 M34.236,30.939c0.352,0,0.752-0.022,1.181-0.092
			c0.562-0.09,1.163-0.272,1.733-0.524c0.354-0.155,0.679-0.331,0.951-0.513c0.025,0.272,0.045,0.549,0.059,0.83
			c0.017,0.355,0.025,0.685,0.029,0.976c-0.52,0.229-1.458,0.41-2.257,0.426c-0.925,0.02-1.753-0.167-2.281-0.37
			c0.004-0.235,0.009-0.488,0.015-0.753C33.835,30.934,34.027,30.939,34.236,30.939 M34.437,32.355
			c0.447,0.088,0.901,0.133,1.355,0.133c0.051,0,0.1,0,0.148-0.003c0.779-0.016,1.66-0.174,2.25-0.391
			c-0.001,0.21-0.004,0.385-0.006,0.514c-0.322,0.154-1.188,0.51-2.283,0.51c-0.841,0-1.445-0.156-1.805-0.287
			c-0.211-0.076-0.359-0.152-0.453-0.205c0-0.146,0-0.308,0.002-0.481C33.886,32.228,34.156,32.299,34.437,32.355 M41.304,36.583
			c-0.078-0.012-0.15-0.016-0.224-0.016c-0.104,0-0.212,0.011-0.351,0.032c-0.479,0.076-0.791,0.231-1.108,0.547l-0.241,0.236
			l0.339,0.027c0.218,0.019,0.481,0.073,0.71,0.147c0.23,0.075,0.4,0.19,0.529,0.363c-0.01,0.033-0.021,0.065-0.031,0.102
			c-0.051-0.005-0.103-0.004-0.167,0c-0.09,0.007-0.157,0.017-0.221,0.03l-0.526,0.135l0.517,0.166
			c0.098,0.032,0.179,0.063,0.253,0.098c-0.15,0.432-0.325,0.858-0.518,1.273l-0.012,0.024c-0.069,0.15-0.141,0.3-0.216,0.444
			l-0.114-0.121l-0.105,0.181c-0.031,0.056-0.053,0.111-0.066,0.189c-0.019,0.098-0.016,0.191,0.006,0.278
			c-0.025,0.048-0.055,0.097-0.082,0.146c-0.068-0.021-0.137-0.056-0.217-0.106c-0.243-0.152-0.374-0.346-0.409-0.606l-0.06-0.433
			l-0.229,0.374c-0.035,0.058-0.059,0.119-0.078,0.202c-0.021,0.088-0.027,0.158-0.02,0.229c-0.186-0.047-0.303-0.105-0.398-0.196
			l-0.3-0.285l0.03,0.402c0,0.02,0.002,0.039,0.002,0.058c0,0.306-0.18,0.585-0.457,0.712l-0.142,0.063l0.065,0.144
			c0.046,0.102,0.068,0.212,0.068,0.326c0,0.387-0.274,0.716-0.655,0.781l-0.212,0.038l0.103,0.189
			c0.065,0.126,0.101,0.266,0.101,0.409c0,0.477-0.389,0.866-0.867,0.866c-0.478,0-0.866-0.39-0.866-0.866
			c0-0.11,0.021-0.216,0.06-0.317l0.07-0.178l-0.189-0.032c-0.404-0.069-0.697-0.417-0.697-0.825c0-0.157,0.044-0.306,0.125-0.44
			l0.08-0.131l-0.127-0.081c-0.252-0.164-0.402-0.438-0.402-0.737v-0.033l0.008-0.192l-0.191,0.034
			c-0.044,0.009-0.09,0.012-0.135,0.012c-0.094,0-0.186-0.016-0.271-0.049l-0.131-0.05l-0.063,0.126
			c-0.053,0.104-0.103,0.157-0.132,0.173c-0.075,0.041-0.137,0.066-0.217,0.074c-0.002-0.081-0.008-0.151-0.023-0.249
			c-0.008-0.05-0.016-0.092-0.021-0.129l-0.008-0.034l-0.285-0.014l-0.01,0.033c-0.035,0.118-0.084,0.231-0.141,0.327
			c-0.127,0.219-0.293,0.362-0.48,0.41c-0.072,0.019-0.129,0.029-0.183,0.032c0.021-0.032,0.039-0.068,0.057-0.111
			c0.081-0.197,0.062-0.389-0.052-0.555l-0.116-0.167l-0.131,0.154c-0.097,0.113-0.179,0.182-0.327,0.269
			c-0.233,0.139-0.428,0.199-0.651,0.199c-0.06,0-0.121-0.004-0.189-0.013c-0.073-0.352,0.023-0.674,0.117-0.884
			c0.048-0.105,0.091-0.157,0.166-0.25l0.011-0.015c0.055-0.067,0.096-0.111,0.142-0.152l0.259-0.243l-0.354-0.026
			c-0.016-0.003-0.029-0.005-0.045-0.005c-0.104,0-0.204,0.031-0.316,0.092c-0.087,0.049-0.15,0.1-0.201,0.166
			c-0.049-0.16-0.027-0.312,0.065-0.479c0.066-0.118,0.13-0.167,0.257-0.254c0.071-0.051,0.135-0.064,0.217-0.085
			c0.081-0.018,0.174-0.04,0.271-0.104c0.074-0.049,0.126-0.09,0.175-0.137l0.229-0.223l-0.315-0.046
			c-0.049-0.006-0.096-0.009-0.15-0.009c-0.025,0-0.051,0.002-0.082,0.002c-0.118,0.005-0.207,0.019-0.295,0.044
			c0.088-0.163,0.199-0.276,0.387-0.399c0.193-0.125,0.342-0.148,0.566-0.184c0.025-0.003,0.051-0.008,0.077-0.01
			c0.136-0.021,0.218-0.031,0.337-0.031l0.143-0.003l0.012-0.141c0.014-0.141-0.013-0.25-0.074-0.331
			c-0.104-0.129-0.281-0.142-0.424-0.154c-0.048-0.001-0.098-0.006-0.139-0.015c-0.09-0.019-0.131-0.04-0.179-0.064
			c-0.042-0.024-0.089-0.048-0.163-0.068c-0.15-0.035-0.277-0.054-0.398-0.054c-0.156,0-0.307,0.028-0.48,0.094
			c-0.029-0.177,0.018-0.323,0.145-0.473c0.131-0.154,0.267-0.196,0.47-0.217c0.038-0.003,0.065-0.004,0.089-0.004
			c0.013,0,0.023,0,0.034,0.001l0.311,0.017l-0.171-0.257c-0.025-0.042-0.058-0.074-0.1-0.104c-0.093-0.068-0.262-0.094-0.387-0.094
			c-0.023,0-0.053,0.002-0.083,0.005c0.029-0.078,0.071-0.142,0.142-0.219c0.098-0.106,0.229-0.154,0.408-0.154
			c0.154,0,0.32,0.036,0.468,0.07c0.071,0.017,0.141,0.03,0.202,0.041c0.074,0.012,0.145,0.019,0.207,0.019
			c0.066,0,0.125-0.009,0.17-0.021l0.142-0.042l-0.033-0.146l-0.003-0.01c-0.023-0.103-0.064-0.152-0.184-0.224
			c-0.09-0.053-0.291-0.074-0.434-0.081c0.08-0.105,0.158-0.165,0.351-0.171c0.123-0.004,0.229,0.009,0.339,0.049l-0.034,0.017
			l0.144,0.029c0.08,0.039,0.16,0.085,0.252,0.14c0.029,0.017,0.059,0.034,0.09,0.054c0.048,0.025,0.087,0.061,0.125,0.09
			c0.054,0.046,0.115,0.098,0.199,0.126c0.045,0.015,0.084,0.023,0.127,0.023c0.023,0,0.047-0.004,0.076-0.009l0.14-0.022
			l-0.011-0.144c-0.006-0.092-0.037-0.171-0.102-0.258c-0.027-0.034-0.057-0.064-0.087-0.091c0.096-0.021,0.191-0.035,0.288-0.035
			c0.26,0,0.493,0.084,0.677,0.248c0.116,0.101,0.194,0.281,0.231,0.532c0.027,0.178,0.033,0.393,0.019,0.636l-0.026,0.422
			l0.294-0.303c0.148-0.153,0.309-0.305,0.535-0.5c0.073-0.064,0.14-0.12,0.201-0.172l0.181-0.151l-0.209-0.108
			c-0.062-0.031-0.131-0.066-0.207-0.097l0.346-0.153c0.069,0.049,0.135,0.095,0.193,0.139l0.09,0.066l0.091-0.064
			c0.082-0.058,0.169-0.114,0.276-0.183c0.07,0.01,0.115,0.026,0.188,0.06c0.059,0.027,0.121,0.068,0.177,0.115
			c-0.076,0.04-0.176,0.095-0.277,0.155l-0.194,0.112l0.173,0.144c0.078,0.062,0.165,0.135,0.262,0.218
			c0.179,0.154,0.302,0.263,0.426,0.377l0.282,0.265l-0.021-0.386c-0.011-0.222-0.003-0.402,0.022-0.494l0.004-0.013
			c0.088-0.312,0.146-0.521,0.395-0.694c0.141-0.099,0.43-0.265,0.775-0.265c0.055,0,0.11,0.002,0.164,0.012
			c-0.02,0.029-0.037,0.062-0.057,0.101c-0.054,0.113-0.08,0.239-0.072,0.37l0.019,0.353l0.249-0.25
			c0.185-0.19,0.398-0.298,0.697-0.348c0.084-0.015,0.159-0.021,0.232-0.021c0.155,0,0.295,0.033,0.44,0.104
			c-0.042,0.006-0.089,0.016-0.14,0.027c-0.027,0.007-0.053,0.012-0.08,0.016c-0.078,0.011-0.162,0.023-0.244,0.101
			c-0.021,0.021-0.041,0.04-0.057,0.061l-0.261,0.333l0.414-0.084c0.077-0.014,0.146-0.021,0.247-0.021h0.014
			c0.052,0.002,0.095,0.009,0.139,0.018c0.051,0.014,0.103,0.026,0.168,0.026c0.013,0,0.025-0.003,0.037-0.003
			c0.062-0.005,0.106-0.019,0.146-0.032c0.036-0.01,0.067-0.021,0.108-0.023c0.021,0,0.041,0,0.061,0
			c0.174,0,0.279,0.037,0.39,0.139c0.082,0.076,0.129,0.146,0.153,0.232c-0.04-0.015-0.082-0.025-0.136-0.033
			c-0.039-0.005-0.076-0.009-0.109-0.009c-0.045,0-0.087,0.005-0.129,0.017l-0.41,0.103l0.379,0.188
			c0.04,0.02,0.08,0.039,0.135,0.07c0.041,0.021,0.076,0.038,0.11,0.055c0.076,0.034,0.131,0.061,0.194,0.121
			c0.084,0.079,0.142,0.151,0.18,0.23C41.333,36.439,41.32,36.511,41.304,36.583"/>
		<path fill="#FFFFFF" d="M12.582,12.655c0.053,0.047,0.092,0.106,0.117,0.172c0.021,0.054,0.049,0.142,0.053,0.245
			c2.217-0.884,4.531-1.564,6.879-2.023c2.451-0.479,4.972-0.724,7.49-0.724c2.518,0,5.035,0.244,7.482,0.723
			c2.344,0.458,4.653,1.14,6.871,2.022c0.006-0.102,0.032-0.189,0.053-0.243c0.025-0.067,0.066-0.126,0.119-0.174
			c-4.619-1.841-9.506-2.775-14.525-2.775C22.093,9.878,17.203,10.812,12.582,12.655"/>
		<polygon fill="#FFFFFF" points="23.851,0 23.851,1.372 30.525,1.372 30.525,0 29.781,0 29.779,0.783 28.498,0.783 28.498,0 
			27.751,0 27.751,0.78 26.548,0.78 26.548,0 25.801,0 25.801,0.783 24.597,0.783 24.597,0 		"/>
		<polygon fill="#FFFFFF" points="38.508,7.751 39.871,8.138 40.308,7.474 38.718,7.017 		"/>
		<polygon fill="#FFFFFF" points="39.766,8.293 39.352,8.177 39.138,8.924 39.315,8.979 		"/>
		<polygon fill="#FFFFFF" points="40.007,6.409 39.796,7.14 40.412,7.315 40.851,6.65 		"/>
		<polygon fill="#FFFFFF" points="41.81,5.199 41.593,5.137 41.395,5.828 		"/>
		<polygon fill="#FFFFFF" points="45.9,3.801 45.619,4.532 44.648,4.158 44.929,3.429 44.011,3.076 43.731,3.805 42.76,3.435 
			43.041,2.704 42.121,2.352 41.63,3.63 46.33,5.436 46.822,4.154 		"/>
		<polygon fill="#FFFFFF" points="33.48,3.278 33.226,3.27 33.201,3.995 		"/>
		<polygon fill="#FFFFFF" points="38.348,6.909 38.363,7.609 38.546,6.966 		"/>
		<polygon fill="#FFFFFF" points="38.369,7.899 38.386,8.696 38.968,8.872 39.181,8.129 		"/>
		<polygon fill="#FFFFFF" points="38.344,6.724 39.625,7.092 39.835,6.361 38.328,5.929 		"/>
		<polygon fill="#FFFFFF" points="38.291,4.191 38.306,4.882 38.488,4.247 		"/>
		<polygon fill="#FFFFFF" points="40.257,5.566 40.472,4.817 39.609,4.568 39.393,5.318 38.308,5.006 38.324,5.741 40.955,6.495 
			41.357,5.884 		"/>
		<polygon fill="#FFFFFF" points="39.419,2.881 39.656,1.529 38.921,1.4 38.785,2.169 37.525,1.945 37.66,1.179 36.925,1.048 
			36.789,1.815 35.605,1.606 35.739,0.838 35.003,0.71 34.869,1.479 33.683,1.27 33.819,0.5 33.083,0.371 32.845,1.721 		"/>
		<polygon fill="#FFFFFF" points="12.687,3.63 12.195,2.352 11.277,2.704 11.556,3.435 10.585,3.805 10.306,3.076 9.389,3.429 
			9.667,4.158 8.698,4.532 8.416,3.801 7.496,4.154 7.987,5.436 		"/>
		<polygon fill="#FFFFFF" points="21.471,1.721 21.234,0.371 20.499,0.5 20.634,1.27 19.448,1.479 19.312,0.71 18.577,0.838 
			18.712,1.606 17.527,1.815 17.39,1.048 16.656,1.179 16.792,1.945 15.532,2.17 15.394,1.4 14.66,1.529 14.898,2.881 		"/>
		<path fill="#FFFFFF" d="M42.41,12.268c0.053,0.021,0.107,0.044,0.16,0.066"/>
		<path fill-rule="evenodd" clip-rule="evenodd" fill="#FFFFFF" d="M29.257,2.154h-4.139L23.861,8.47
			c0.326-0.026,0.65-0.055,0.977-0.073c0.024-1.253,0.244-2.427,0.638-3.319c0.431-0.974,1.012-1.508,1.638-1.508
			c0.628,0,1.211,0.534,1.639,1.508c0.395,0.893,0.614,2.066,0.639,3.319c0.346,0.02,0.691,0.049,1.035,0.077h0.085L29.257,2.154z
			 M25.98,3.751h-0.539v-1.42h0.539V3.751z M28.89,3.751h-0.54v-1.42h0.54V3.751z"/>
		<path fill-rule="evenodd" clip-rule="evenodd" fill="#FFFFFF" d="M42.388,4.761L38.89,10.06c0.263,0.079,0.521,0.164,0.781,0.248
			c0.4-0.852,0.959-1.573,1.645-2.081c0.679-0.501,1.438-0.778,2.14-0.778c0.214,0,0.413,0.04,0.604,0.092l0.787-1.834L42.388,4.761
			z M43.808,7.035l-0.502-0.192l0.508-1.327l0.505,0.194L43.808,7.035z"/>
		<path fill-rule="evenodd" clip-rule="evenodd" fill="#FFFFFF" d="M38.169,9.856l-0.136-6.425l-4.076-0.719L31.671,8.59
			c0.316,0.034,0.633,0.075,0.949,0.118c0.231-1.124,0.613-2.161,1.104-2.934c0.545-0.864,1.17-1.339,1.762-1.339
			c0.064,0,0.129,0.005,0.191,0.017c0.618,0.107,1.098,0.738,1.352,1.769c0.23,0.937,0.244,2.114,0.058,3.338
			C37.45,9.649,37.809,9.756,38.169,9.856 M34.593,4.436l-0.53-0.095l0.245-1.398l0.531,0.093L34.593,4.436z M36.927,4.846
			l0.246-1.397l0.53,0.092l-0.247,1.402L36.927,4.846z"/>
		<path fill-rule="evenodd" clip-rule="evenodd" fill="#FFFFFF" d="M11.929,4.761L9.47,5.706l0.786,1.834
			c0.192-0.052,0.39-0.092,0.606-0.092c0.701,0,1.461,0.277,2.138,0.778c0.679,0.503,1.233,1.217,1.631,2.058
			c0.26-0.083,0.52-0.166,0.781-0.245L11.929,4.761z M10.443,7.035L9.934,5.71l0.503-0.194l0.51,1.327L10.443,7.035z"/>
		<path fill-rule="evenodd" clip-rule="evenodd" fill="#FFFFFF" d="M20.359,2.713l-4.076,0.719l-0.136,6.402
			c0.36-0.102,0.72-0.205,1.082-0.295c-0.184-1.217-0.169-2.387,0.06-3.318c0.254-1.03,0.733-1.661,1.352-1.769
			c0.062-0.012,0.126-0.017,0.189-0.017c0.592,0,1.217,0.475,1.764,1.339c0.488,0.771,0.869,1.803,1.102,2.924
			c0.314-0.042,0.631-0.084,0.947-0.119L20.359,2.713z M16.965,4.979L16.719,3.58l0.53-0.093l0.248,1.398L16.965,4.979z
			 M19.832,4.475l-0.248-1.398l0.531-0.094l0.246,1.398L19.832,4.475z"/>
		<path fill-rule="evenodd" clip-rule="evenodd" fill="#FFFFFF" d="M13.792,10.565c-0.057-0.115-0.111-0.233-0.174-0.342l-1.596,0.6
			l1.383-0.928c-0.033-0.05-0.062-0.104-0.098-0.151l-1.549,0.605l1.32-0.881c-0.055-0.064-0.106-0.132-0.164-0.191l-1.348,0.577
			l1.1-0.809c-0.044-0.039-0.084-0.083-0.129-0.121c-0.016-0.012-0.033-0.021-0.051-0.033l-1.179,0.462l0.866-0.685
			c-0.072-0.046-0.146-0.081-0.219-0.12l-0.795,0.355L11.624,8.4c-0.229-0.083-0.456-0.134-0.67-0.134
			c-0.13,0-0.245,0.031-0.358,0.063l1.268,2.956C12.5,11.03,13.142,10.79,13.792,10.565"/>
		<path fill="#FFFFFF" d="M33.252,8.787c0.198-0.954,0.497-1.832,0.86-2.498c0.201-0.367,0.412-0.653,0.629-0.857
			C34.978,5.211,35.213,5.1,35.443,5.1c0.039,0,0.08,0.004,0.119,0.01c0.238,0.042,0.442,0.207,0.607,0.488
			c0.148,0.254,0.26,0.596,0.333,1.018c0.136,0.782,0.118,1.769-0.038,2.801c0.131,0.03,0.261,0.057,0.391,0.089
			c0.178-1.185,0.161-2.323-0.061-3.229c-0.113-0.46-0.273-0.836-0.475-1.109c-0.199-0.273-0.43-0.433-0.686-0.479
			c-0.049-0.006-0.098-0.014-0.148-0.014c-0.25,0-0.512,0.106-0.777,0.316c-0.271,0.213-0.533,0.519-0.781,0.912
			c-0.473,0.745-0.845,1.746-1.071,2.834C32.988,8.756,33.121,8.768,33.252,8.787"/>
		<path fill-rule="evenodd" clip-rule="evenodd" fill="#FFFFFF" d="M25.718,8.363c0.465-0.016,0.929-0.034,1.394-0.034h0.009
			c0.464,0,0.927,0.019,1.389,0.034c-0.021-1.03-0.17-1.991-0.433-2.722c-0.267-0.74-0.617-1.163-0.964-1.163
			c-0.215,0-0.431,0.183-0.629,0.486l1.18,0.097l-1.326,0.149c-0.028,0.055-0.055,0.122-0.081,0.185l1.505,0.158L26.14,5.675
			c-0.029,0.086-0.055,0.182-0.081,0.273l1.713,0.169l-1.806,0.147c-0.018,0.072-0.029,0.154-0.045,0.23l1.949,0.158l-2.014,0.173
			c-0.016,0.091-0.029,0.183-0.041,0.277l2.043,0.126l-2.08,0.196c-0.01,0.083-0.022,0.162-0.028,0.248l2.056,0.177L25.73,8.097
			C25.726,8.187,25.722,8.274,25.718,8.363"/>
		<path fill="#FFFFFF" d="M25.472,8.37c0.023-1.062,0.18-2.055,0.452-2.812c0.146-0.402,0.314-0.72,0.505-0.942
			c0.211-0.251,0.442-0.378,0.684-0.378c0.244,0,0.473,0.127,0.685,0.378c0.19,0.223,0.361,0.54,0.506,0.942
			c0.272,0.758,0.429,1.751,0.45,2.812c0.133,0.005,0.267,0.003,0.4,0.01c-0.026-1.215-0.242-2.346-0.622-3.206
			c-0.192-0.436-0.415-0.775-0.66-1.012c-0.243-0.234-0.499-0.353-0.759-0.353c-0.258,0-0.514,0.118-0.756,0.353
			c-0.246,0.236-0.469,0.576-0.66,1.012c-0.38,0.86-0.596,1.991-0.622,3.206C25.208,8.373,25.34,8.375,25.472,8.37"/>
		<path fill-rule="evenodd" clip-rule="evenodd" fill="#FFFFFF" d="M12.071,12.671c2.336-0.964,4.78-1.707,7.266-2.204
			c2.546-0.509,5.165-0.769,7.784-0.769s5.236,0.26,7.781,0.769c2.48,0.497,4.923,1.237,7.26,2.204
			c0.006,0.004,0.043,0.013,0.088,0.013c0.072,0,0.126-0.026,0.164-0.082c0.025-0.035,0.033-0.088,0.021-0.141
			c-0.012-0.049-0.036-0.094-0.066-0.114c-4.836-2.007-9.966-3.025-15.248-3.025c-5.287,0-10.42,1.019-15.255,3.025
			c-0.03,0.021-0.058,0.065-0.067,0.114c-0.012,0.053-0.005,0.105,0.02,0.141c0.039,0.056,0.094,0.082,0.166,0.082
			C12.028,12.684,12.066,12.675,12.071,12.671"/>
		<path fill-rule="evenodd" clip-rule="evenodd" fill="#FFFFFF" d="M42.111,13.523c-4.749-2.005-9.792-3.018-14.99-3.018
			c-5.203,0-10.248,1.013-14.998,3.018c-0.135,0.055-0.207,0.219-0.154,0.35c0.049,0.118,0.134,0.177,0.262,0.177
			c0.05,0,0.089-0.012,0.102-0.015c2.291-0.965,4.689-1.71,7.131-2.208c2.504-0.51,5.081-0.77,7.658-0.77s5.152,0.26,7.655,0.77
			c2.437,0.498,4.835,1.243,7.126,2.208c0.01,0.003,0.051,0.015,0.102,0.015c0.128,0,0.213-0.059,0.261-0.177
			C42.317,13.742,42.246,13.578,42.111,13.523"/>
		<polygon fill-rule="evenodd" clip-rule="evenodd" fill="#FFFFFF" points="24.365,1.551 24.562,1.944 29.816,1.944 30.013,1.551 		
			"/>
		<polygon fill-rule="evenodd" clip-rule="evenodd" fill="#FFFFFF" points="42.044,3.982 42.087,4.422 45.42,5.702 45.746,5.402 		
			"/>
		<polygon fill-rule="evenodd" clip-rule="evenodd" fill="#FFFFFF" points="38.621,3.321 38.884,2.968 33.32,1.986 33.445,2.409 		
			"/>
		<polygon fill-rule="evenodd" clip-rule="evenodd" fill="#FFFFFF" points="8.571,5.402 8.897,5.702 12.23,4.422 12.271,3.982 		"/>
		<polygon fill-rule="evenodd" clip-rule="evenodd" fill="#FFFFFF" points="15.433,2.968 15.696,3.321 20.871,2.409 20.998,1.986 		
			"/>
		<path fill="#FFFFFF" d="M12.085,44.369c-0.199,0.116-0.411,0.282-0.557,0.396l-1.17,0.914c-0.334,0.261-0.443,0.347-0.661,0.556
			c0.772,0.806,1.628,0.567,2.091,0.207C12.202,46.118,12.686,45.405,12.085,44.369"/>
		<polygon fill="#FFFFFF" points="44.753,43.71 45.234,42.942 44.156,42.779 		"/>
		<path fill="#FFFFFF" d="M22.279,51.266c-0.08,0.217-0.143,0.479-0.184,0.658l-0.334,1.447c-0.096,0.414-0.127,0.549-0.165,0.848
			c1.108,0.143,1.624-0.58,1.755-1.156C23.468,52.555,23.396,51.693,22.279,51.266"/>
		<path fill="#FFFFFF" d="M15.948,48.999l-0.831,1.231c-0.236,0.35-0.314,0.467-0.457,0.73c0.982,0.53,1.723,0.039,2.052-0.449
			c0.294-0.435,0.533-1.263-0.358-2.062C16.201,48.623,16.05,48.847,15.948,48.999"/>
		<path fill="#FFFFFF" d="M26.167,51.892c-0.752-0.041-1.269,0.586-1.307,1.309c-0.053,1.011,0.682,1.651,1.394,1.691
			c0.831,0.042,1.261-0.718,1.292-1.302C27.585,52.813,27.039,51.937,26.167,51.892"/>
		<path fill="#FFFFFF" d="M49.189,35.568c0-0.003,0.002-0.003,0.002-0.003c0-0.003-0.002-0.004-0.002-0.004
			c0-0.015,0.014-1.205-0.359-1.769c-0.068-0.104-0.279-0.362-0.483-0.61c-0.222-0.265-0.429-0.52-0.511-0.641
			c-0.095-0.142-0.174-0.364-0.206-0.581c-0.028-0.191-0.036-0.467,0.097-0.679c0.165-0.262,0.42-0.396,0.727-0.413
			c-0.148-0.09-0.307-0.164-0.471-0.193c-0.064-0.011-0.125-0.019-0.182-0.019c-0.328,0-0.586,0.193-1.011,0.516
			c-0.038,0.029-0.077,0.057-0.117,0.09c-1.316,0.985-3.163,2.307-3.183,2.32c-0.223,0.159-0.572,0.455-0.619,0.6
			c-0.223,0.663-0.101,1.145,0.029,1.653c0.078,0.309,0.158,0.626,0.17,0.999c0.018,0.504-0.062,1.118-0.232,1.771
			c-0.191,0.728-0.482,1.484-0.869,2.243c-0.433,0.858-0.975,1.698-1.607,2.5c-0.71,0.896-1.535,1.741-2.453,2.513
			c-1.612,1.354-3.413,2.382-5.356,3.054c-0.877,0.304-1.782,0.535-2.692,0.685c-0.857,0.144-1.723,0.214-2.57,0.214
			c-0.049,0-0.1-0.002-0.148-0.002c-0.048,0-0.1,0.002-0.148,0.002c-0.85,0-1.713-0.07-2.569-0.214
			c-0.911-0.149-1.816-0.381-2.694-0.685c-1.941-0.672-3.744-1.7-5.355-3.054c-0.919-0.771-1.744-1.616-2.454-2.513
			c-0.634-0.802-1.175-1.642-1.608-2.5c-0.385-0.759-0.678-1.516-0.867-2.243c-0.17-0.653-0.252-1.268-0.233-1.771
			c0.013-0.373,0.093-0.69,0.171-0.999c0.129-0.509,0.25-0.99,0.028-1.653c-0.048-0.145-0.397-0.44-0.618-0.6
			c-0.019-0.014-1.867-1.335-3.184-2.32c-0.039-0.033-0.079-0.061-0.116-0.09c-0.425-0.32-0.683-0.516-1.011-0.516
			c-0.058,0-0.117,0.008-0.182,0.019c-0.163,0.029-0.322,0.102-0.471,0.193c0.307,0.018,0.561,0.151,0.725,0.413
			c0.133,0.212,0.127,0.487,0.098,0.679c-0.031,0.217-0.111,0.439-0.205,0.581c-0.082,0.121-0.289,0.376-0.511,0.641
			c-0.206,0.248-0.417,0.507-0.484,0.61c-0.372,0.563-0.359,1.754-0.359,1.769c0,0-0.001,0-0.001,0.001
			c0,0.003,0.001,0.003,0.001,0.006L4.981,38.84c0.013,0.562,0.084,1.608,0.176,2.042c0.144,0.676,0.365,1.369,0.626,1.952
			c3.758,8.421,12.141,13.859,21.355,13.859c9.217,0,17.602-5.438,21.359-13.859c0.26-0.583,0.482-1.276,0.625-1.952
			c0.093-0.434,0.162-1.48,0.177-2.042L49.189,35.568z M7.19,42.834c-0.636-1.303,0.208-2.186,0.813-2.481
			c0.896-0.438,2.15-0.116,2.737,1.091c0.17,0.347,0.198,0.587,0.222,0.782l-0.537,0.262c0.006-0.247,0.011-0.592-0.184-0.992
			c-0.366-0.747-1.177-1-1.925-0.636c-0.685,0.334-1.059,1.07-0.673,1.859c0.252,0.516,0.616,0.697,0.844,0.812l-0.531,0.228
			C7.744,43.597,7.448,43.363,7.19,42.834 M8.513,45.142l-0.447-0.714c0.238-0.061,0.457-0.115,0.984-0.444l1.506-0.941
			c0.359-0.224,0.531-0.39,0.675-0.592l0.445,0.713c-0.222,0.057-0.431,0.105-0.908,0.404l-1.457,0.91
			C8.954,44.702,8.787,44.841,8.513,45.142 M9.513,46.586l-0.556-0.709c0.233-0.081,0.446-0.158,0.987-0.581l1.244-0.972
			c0.409-0.321,0.592-0.597,0.701-0.739c0.088,0.095,0.154,0.163,0.256,0.293c0.423,0.542,0.881,1.235,0.658,2.132
			c-0.109,0.434-0.364,0.758-0.65,0.979C11.389,47.587,10.251,47.534,9.513,46.586 M12.944,50.034
			c0.112-0.121,0.228-0.272,0.335-0.587l0.184-0.517l-0.959-0.894l-0.414,0.165c-0.142,0.059-0.469,0.195-0.654,0.425l-0.667-0.623
			c0.19-0.02,0.361-0.042,1.006-0.282l3.003-1.107l0.023,0.02l-0.938,2.861c-0.201,0.609-0.236,0.902-0.264,1.137L12.944,50.034z
			 M14.593,51.354l-0.748-0.505c0.197-0.148,0.375-0.287,0.76-0.858l0.883-1.309c0.289-0.429,0.379-0.749,0.438-0.919
			c0.113,0.065,0.198,0.108,0.336,0.202c0.569,0.384,1.218,0.899,1.283,1.821c0.028,0.446-0.111,0.833-0.315,1.134
			C16.687,51.728,15.588,52.024,14.593,51.354 M19.611,50.601c-0.294-0.354-0.469-0.495-0.829-0.654l-0.569,1.169l1.052,0.513
			l-0.517,0.329c-0.33-0.297-0.447-0.376-0.693-0.52l-0.599,1.228c0.431,0.211,0.667,0.324,1.498,0.431l-0.521,0.439l-1.759-0.858
			c0.153-0.168,0.337-0.373,0.546-0.802l0.801-1.644c0.111-0.226,0.24-0.571,0.288-0.908l1.81,0.881L19.611,50.601z M23.981,53.261
			c-0.22,0.945-1.136,1.619-2.306,1.35l-0.879-0.204c0.131-0.21,0.246-0.404,0.4-1.071l0.355-1.541
			c0.117-0.504,0.086-0.833,0.082-1.013c0.127,0.019,0.223,0.028,0.382,0.066c0.671,0.156,1.462,0.404,1.851,1.239
			C24.055,52.495,24.062,52.907,23.981,53.261 M26.08,55.285c-1.205-0.062-1.9-1.078-1.85-2.033
			c0.043-0.831,0.845-1.815,2.143-1.748c1.234,0.063,1.807,1.032,1.758,1.978C28.068,54.646,27.134,55.341,26.08,55.285
			 M31.621,53.25c-0.274-0.059-0.512-0.079-0.967,0.016l0.161,0.821c0.058,0.294,0.136,0.543,0.274,0.81l-0.784,0.151
			c0.03-0.482-0.048-0.898-0.077-1.049l-0.334-1.721c-0.101-0.521-0.203-0.711-0.301-0.893l2.012-0.392L31.41,51.59
			c-0.426-0.079-0.591-0.061-1.076,0.017l0.251,1.296l1.214-0.235L31.621,53.25z M35.425,53.681
			c-0.046-0.21-0.057-0.254-0.096-0.355c-0.164,0.197-0.486,0.593-0.99,0.768c-0.73,0.251-1.342-0.16-1.619-0.966l-0.478-1.392
			c-0.185-0.535-0.279-0.641-0.394-0.77l0.755-0.261c-0.001,0.26,0.011,0.396,0.179,0.886l0.442,1.285
			c0.075,0.22,0.141,0.346,0.237,0.459c0.321,0.37,0.775,0.355,1,0.276c0.383-0.13,0.614-0.532,0.6-0.896
			c-0.006-0.073-0.016-0.139-0.094-0.361l-0.479-1.393c-0.057-0.161-0.188-0.541-0.406-0.766l0.754-0.26
			c-0.005,0.172-0.006,0.292,0.153,0.752l0.647,1.885c0.085,0.243,0.156,0.449,0.414,0.894L35.425,53.681z M39.334,51.725
			c-0.152-0.144-0.347-0.235-0.54-0.316l-2.374-1.005l0.714,1.288c0.16,0.289,0.414,0.675,0.662,0.886l-0.693,0.383
			c-0.084-0.396-0.334-0.859-0.369-0.921l-1.087-1.964c-0.269-0.111-0.401-0.148-0.684-0.196l0.779-0.432
			c0.144,0.115,0.218,0.177,0.655,0.359l2.516,1.054l-0.822-1.484c-0.335-0.603-0.457-0.732-0.613-0.889l0.627-0.35
			c0.053,0.197,0.11,0.396,0.303,0.745l0.973,1.752c0.28,0.506,0.438,0.646,0.561,0.753L39.334,51.725z M41.821,49.713
			c-1.127,0.911-2.177,0.288-2.601-0.236c-0.627-0.774-0.598-2.067,0.443-2.913c0.303-0.242,0.531-0.324,0.716-0.39l0.376,0.464
			c-0.242,0.049-0.58,0.122-0.925,0.403c-0.646,0.522-0.712,1.37-0.187,2.018c0.479,0.592,1.281,0.79,1.961,0.236
			c0.447-0.36,0.541-0.756,0.603-1.007l0.342,0.47C42.438,49.002,42.278,49.342,41.821,49.713 M44.611,46.772
			c-0.117-0.213-0.203-0.377-0.647-0.778l-0.489-0.44l-1.07,1.188l0.459,0.415c0.442,0.396,0.662,0.494,0.869,0.593l-0.568,0.628
			c-0.086-0.163-0.203-0.376-0.617-0.752l-1.355-1.218c-0.396-0.356-0.646-0.468-0.812-0.538l0.574-0.636
			c0.085,0.165,0.185,0.367,0.536,0.685l0.563,0.508l1.07-1.189l-0.493-0.443c-0.381-0.344-0.612-0.444-0.805-0.529l0.571-0.634
			c0.124,0.226,0.218,0.391,0.645,0.774l1.284,1.156c0.459,0.414,0.639,0.49,0.855,0.578L44.611,46.772z M46.892,43.308
			c-0.14-0.088-0.312-0.172-0.641-0.218l-0.543-0.082l-0.694,1.112l0.243,0.374c0.082,0.129,0.281,0.424,0.54,0.562l-0.483,0.772
			c-0.055-0.182-0.111-0.347-0.468-0.933l-1.663-2.736l0.017-0.024l2.985,0.373c0.639,0.081,0.934,0.059,1.168,0.042L46.892,43.308z
			 M47.445,42.297c-0.184-0.182-0.295-0.289-1.047-0.607l-1.518-0.645c-0.496-0.209-0.689-0.216-0.863-0.225l0.328-0.77
			c0.148,0.145,0.279,0.271,0.786,0.489l2.235,0.973c0.205-0.64,0.256-1.024,0.264-1.455l0.527,0.56L47.445,42.297z"/>
		<polygon fill="#FFFFFF" points="12.957,47.859 13.619,48.478 13.986,47.448 		"/>
		<path fill="#FFFFFF" d="M47.622,21.824c-0.111,0.187-0.325,0.39-0.588,0.56c-0.345,0.225-0.758,0.387-1.226,0.479
			c-0.334,0.066-0.527,0.089-0.537,0.092c-0.262,0.102-0.871,0.391-1.035,0.711c-0.188,0.364-0.289,1.14,0.244,1.656
			c0.227,0.22,0.382,0.468,0.458,0.74c0.063,0.228,0.061,0.423,0.061,0.554c-0.001,0.02-0.001,0.036-0.001,0.052
			c0,0.094-0.03,0.248-0.084,0.513c-0.012,0.064-0.025,0.135-0.039,0.206c0.252-0.341,0.896-0.893,1.53-1.128
			c0.628-0.234,0.771-0.302,0.776-0.303c0,0,0,0.001,0.001,0c0.001,0,0.001-0.002,0.003-0.002l1.732-0.771
			c0.055-0.034,0.414-0.277,0.502-0.612c0.096-0.362,0.092-0.696-0.006-0.814c-0.003-0.004-0.006-0.009-0.01-0.013l-1.619-2.431
			C47.773,21.468,47.732,21.639,47.622,21.824"/>
		<path fill="#FFFFFF" d="M9.81,21.434c0.037-0.015,0.083-0.027,0.123-0.039c0.085-0.03,0.181-0.058,0.296-0.091
			c0.067-0.02,0.116-0.04,0.192-0.06c0.07-0.016,0.129-0.039,0.191-0.06c0.098-0.031,0.189-0.064,0.273-0.104
			c0.037-0.019,0.076-0.035,0.111-0.054c0.113-0.062,0.217-0.13,0.296-0.207c0.065-0.061,0.118-0.128,0.16-0.198
			c0.056-0.093,0.084-0.201,0.099-0.311c0.004-0.028,0.006-0.057,0.008-0.085c0.005-0.117-0.004-0.242-0.039-0.377
			c-0.007-0.025-0.046-0.093-0.099-0.178c0.002,0.073,0.001,0.146-0.005,0.229c-0.02,0.252-0.149,0.458-0.371,0.594
			c-0.174,0.107-0.367,0.148-0.488,0.15h-0.014c-0.185,0-1.318-0.065-1.379-0.069l-0.001,0.001l-0.69-0.033
			c-0.232-0.01-0.468-0.019-0.602-0.019c-0.018,0-0.02,0.001-0.031,0.001c-0.313,0.02-0.652,0.058-0.734,0.101
			c-0.011,0.007-0.02,0.015-0.03,0.02c-0.021,0.017-0.502,0.425-0.149,1.018c0.031,0.056,0.161,0.247,0.488,0.46
			c0.309,0.199,0.695,0.349,1.117,0.433c0.122,0.025,0.227,0.043,0.307,0.058c-0.007-0.078-0.01-0.169,0.004-0.262
			c0.004-0.031,0.021-0.056,0.027-0.085c0.014-0.071,0.035-0.128,0.061-0.183c0.012-0.023,0.021-0.049,0.035-0.072
			c0.008-0.012,0.011-0.027,0.019-0.038c0.046-0.055,0.103-0.115,0.174-0.176c0.007-0.005,0.01-0.013,0.017-0.019
			C9.38,21.625,9.518,21.537,9.81,21.434"/>
		<path fill="#FFFFFF" d="M43.173,19.876c0.029,0.371,0.445,0.458,0.555,0.458h0.006c0.135,0,0.854-0.039,1.281-0.064l0.455-0.768
			c0.154-0.26,0.451-1.087-0.18-1.467c-0.129-0.079-0.264-0.117-0.408-0.117c-0.348,0-0.759,0.233-1.184,0.675
			c-0.025,0.03-0.292,0.325-0.368,0.42c-0.017,0.024-0.03,0.042-0.048,0.064C43.248,19.163,43.14,19.46,43.173,19.876"/>
		<path fill="#FFFFFF" d="M42.72,20.227c0.001,0.028,0.004,0.057,0.008,0.083c0.014,0.112,0.043,0.22,0.099,0.314
			c0.042,0.07,0.095,0.136,0.16,0.196c0.079,0.077,0.183,0.146,0.298,0.207c0.033,0.02,0.07,0.035,0.107,0.052
			c0.084,0.041,0.178,0.075,0.277,0.107c0.062,0.019,0.121,0.042,0.188,0.058c0.071,0.019,0.116,0.037,0.181,0.056
			c0.125,0.035,0.228,0.066,0.318,0.097c0.035,0.012,0.077,0.023,0.109,0.037c0.295,0.104,0.433,0.19,0.639,0.347
			c0.007,0.006,0.01,0.014,0.017,0.019c0.071,0.062,0.128,0.121,0.173,0.176c0.009,0.011,0.012,0.026,0.02,0.039
			c0.014,0.022,0.022,0.048,0.033,0.07c0.026,0.054,0.049,0.112,0.062,0.185c0.006,0.028,0.023,0.053,0.027,0.084
			c0.014,0.093,0.01,0.183,0.004,0.262c0.08-0.015,0.185-0.032,0.307-0.058c0.423-0.083,0.809-0.233,1.117-0.433
			c0.326-0.213,0.456-0.404,0.49-0.459c0.148-0.253,0.169-0.499,0.059-0.734c-0.082-0.177-0.207-0.281-0.211-0.282
			c-0.01-0.006-0.019-0.015-0.029-0.021c-0.082-0.043-0.422-0.081-0.736-0.101c-0.011,0-0.013-0.001-0.031-0.001
			c-0.134,0-0.372,0.009-0.607,0.02l-0.684,0.032l-0.002-0.001c-0.059,0.004-1.192,0.069-1.379,0.069h-0.012
			c-0.123-0.003-0.315-0.043-0.488-0.15c-0.223-0.136-0.352-0.342-0.373-0.594c-0.006-0.082-0.006-0.156-0.004-0.229
			c-0.053,0.084-0.091,0.151-0.098,0.177C42.722,19.985,42.714,20.109,42.72,20.227"/>
		<path fill="#FFFFFF" d="M49.46,26.959c-0.074-0.027-0.147-0.037-0.22-0.037c-0.337,0-0.605,0.26-0.718,0.696
			c-0.002,0.005-0.035,0.157-0.058,0.426c-0.006,0.058-0.011,0.123-0.017,0.195c-0.021,0.247-0.04,0.455-0.057,0.611
			c0.006-0.001,0.014-0.001,0.02-0.002c0.078-0.008,0.177-0.014,0.289-0.019c0.039,0,0.07-0.006,0.108-0.006
			c0.049,0,0.097,0,0.14,0.004c0.018,0,0.027,0.005,0.044,0.006c0.032,0.001,0.065,0.001,0.098,0.004
			c0.319,0.021,0.55,0.09,0.694,0.144c0.072-0.215,0.191-0.604,0.221-0.823c0.047-0.364-0.004-0.664-0.15-0.888
			C49.713,27.055,49.533,26.979,49.46,26.959"/>
		<path fill="#FFFFFF" d="M49.74,32.983c-0.143-0.73-0.361-1.139-0.432-1.275c-0.051-0.095-0.33-0.465-0.609-0.522
			c-0.065-0.013-0.128-0.018-0.188-0.018c-0.23,0-0.4,0.091-0.521,0.278c-0.142,0.228-0.034,0.715,0.104,0.923
			c0.071,0.107,0.286,0.365,0.491,0.616c0.22,0.267,0.428,0.518,0.505,0.635c0.262,0.396,0.357,1.019,0.392,1.453
			c0.076-0.119,0.15-0.239,0.188-0.313C49.958,34.191,49.78,33.178,49.74,32.983"/>
		<path fill="#FFFFFF" d="M45.427,29.168c0.015,0.012,0.03,0.021,0.046,0.033c0.078,0.06,0.175,0.122,0.284,0.183
			c0.058,0.031,0.114,0.065,0.175,0.091c0.027,0.015,0.061,0.022,0.09,0.035c0.081,0.032,0.163,0.064,0.245,0.088
			c0.033,0.008,0.071,0.015,0.105,0.024c0.184,0.044,0.367,0.069,0.542,0.069c0.188,0,0.345-0.03,0.479-0.075
			c0.02-0.007,0.04-0.012,0.059-0.019c0.111-0.042,0.201-0.098,0.279-0.154c0.033-0.026,0.064-0.054,0.092-0.08
			s0.049-0.055,0.071-0.081c0.048-0.061,0.089-0.12,0.114-0.168c0.015-0.033,0.036-0.073,0.043-0.098
			c0.001-0.005,0.003-0.01,0.004-0.014c0.007-0.073,0.078-0.802,0.09-0.926c0.013-0.157,0.021-0.257,0.035-0.347
			c-0.007,0-0.018-0.003-0.023-0.004c-0.064-0.006-0.131-0.02-0.211-0.037c-0.046-0.007-0.082-0.007-0.13-0.021
			c-0.013-0.003-0.021-0.012-0.033-0.016c-0.047-0.013-0.088-0.039-0.134-0.059c-0.078-0.034-0.156-0.069-0.219-0.116
			c-0.025-0.02-0.043-0.048-0.067-0.068c-0.048-0.046-0.104-0.087-0.14-0.143c-0.025-0.041-0.041-0.083-0.062-0.124
			c-0.002-0.005-0.006-0.007-0.008-0.01c-0.002-0.006-0.001-0.009-0.004-0.013c-0.119-0.257-0.139-0.509-0.121-0.709
			c0.001-0.017-0.002-0.041-0.001-0.058c-0.12,0.046-0.285,0.11-0.515,0.197c-0.595,0.221-1.258,0.792-1.436,1.073
			c-0.337,0.535-0.137,0.982-0.13,0.995c0.03,0.052,0.064,0.099,0.099,0.147C45.126,28.879,45.238,29.017,45.427,29.168"/>
		<path fill="#FFFFFF" d="M54.219,30.271c-0.01-0.241-0.017-0.4-0.017-0.462v-0.076c0.002-0.19,0.004-0.509-0.045-0.808
			c-0.054-0.339-0.156-0.563-0.303-0.674c-0.149-0.11-0.398-0.222-0.641-0.331c-0.127-0.057-0.258-0.116-0.379-0.175
			c-0.121-0.051-2.217-0.909-2.671-1.027c-0.087-0.021-0.19-0.033-0.306-0.033c-0.07,0-0.137,0.007-0.203,0.014
			c0.127,0.058,0.312,0.175,0.46,0.402c0.188,0.288,0.255,0.658,0.199,1.097c-0.045,0.347-0.278,1.018-0.288,1.045
			c-0.002,0.005-0.006,0.005-0.007,0.008c-0.001,0.004,0.001,0.008-0.001,0.011c-0.003,0.006-0.285,0.573-0.364,0.833
			c-0.153,0.496-0.106,1.309-0.098,1.43c0.007,0.01,0.021,0.03,0.025,0.04c0.078,0.143,0.312,0.585,0.464,1.357
			c0.061,0.302,0.229,1.336-0.098,1.979c-0.047,0.094-0.141,0.243-0.23,0.383c1.512-0.476,3.855-1.217,4.057-1.297
			c0.279-0.112,0.451-0.404,0.484-0.821C54.313,32.477,54.251,31.043,54.219,30.271"/>
		<path fill="#FFFFFF" d="M4.274,28.158c0.03,0.22,0.149,0.608,0.22,0.823c0.146-0.054,0.375-0.123,0.695-0.144
			c0.032-0.003,0.064-0.003,0.098-0.004c0.017-0.001,0.026-0.006,0.045-0.006c0.043-0.004,0.09-0.004,0.14-0.004
			c0.038,0,0.07,0.006,0.108,0.007c0.112,0.004,0.21,0.01,0.289,0.018c0.006,0.001,0.014,0.001,0.02,0.002
			c-0.018-0.155-0.035-0.364-0.057-0.611c-0.006-0.072-0.012-0.138-0.017-0.195c-0.022-0.263-0.055-0.41-0.058-0.423l0,0
			c-0.112-0.439-0.381-0.699-0.719-0.699c-0.071,0-0.145,0.01-0.219,0.037c-0.072,0.021-0.254,0.096-0.395,0.312
			C4.279,27.494,4.228,27.794,4.274,28.158"/>
		<path fill="#FFFFFF" d="M4.331,34.899c-0.325-0.643-0.157-1.677-0.097-1.979c0.152-0.772,0.387-1.215,0.464-1.357
			c0.003-0.01,0.019-0.03,0.025-0.04c0.007-0.12,0.056-0.935-0.099-1.43c-0.079-0.261-0.36-0.827-0.365-0.833
			c-0.001-0.004,0.001-0.007-0.001-0.011c-0.001-0.003-0.005-0.003-0.005-0.007c-0.01-0.028-0.244-0.699-0.287-1.046
			c-0.057-0.438,0.009-0.809,0.197-1.097c0.148-0.228,0.334-0.345,0.461-0.402c-0.067-0.007-0.135-0.014-0.203-0.014
			c-0.117,0-0.22,0.013-0.307,0.033c-0.453,0.118-2.549,0.977-2.67,1.027c-0.121,0.059-0.252,0.117-0.381,0.175
			c-0.24,0.109-0.489,0.221-0.639,0.331c-0.146,0.11-0.25,0.335-0.303,0.674c-0.049,0.299-0.047,0.617-0.046,0.808
			c0,0.027,0.001,0.055,0.001,0.076c0,0.062-0.007,0.221-0.019,0.462c-0.032,0.772-0.092,2.206-0.038,2.894
			c0.032,0.417,0.204,0.709,0.484,0.821c0.2,0.08,2.542,0.821,4.056,1.297C4.47,35.143,4.378,34.993,4.331,34.899"/>
		<path fill="#FFFFFF" d="M5.693,32.984c0.207-0.25,0.42-0.508,0.492-0.615c0.139-0.208,0.244-0.695,0.104-0.923
			C6.169,31.259,6,31.168,5.769,31.168c-0.06,0-0.123,0.005-0.189,0.018c-0.277,0.058-0.557,0.429-0.607,0.523
			c-0.072,0.136-0.289,0.544-0.434,1.274c-0.038,0.194-0.217,1.208,0.07,1.776c0.039,0.074,0.111,0.194,0.188,0.313
			c0.036-0.435,0.131-1.058,0.393-1.453C5.267,33.503,5.474,33.252,5.693,32.984"/>
		<path fill="#FFFFFF" d="M6.847,27.478c-0.062,0.047-0.139,0.082-0.218,0.116c-0.046,0.02-0.087,0.046-0.134,0.059
			c-0.012,0.005-0.02,0.013-0.033,0.016c-0.047,0.015-0.082,0.013-0.127,0.021c-0.083,0.018-0.151,0.032-0.217,0.037
			c-0.006,0.001-0.015,0.003-0.021,0.004c0.013,0.09,0.022,0.189,0.036,0.347c0.012,0.124,0.082,0.851,0.089,0.926
			c0.001,0.004,0.003,0.008,0.005,0.013c0.006,0.025,0.027,0.065,0.043,0.101c0.023,0.046,0.062,0.1,0.107,0.159
			c0.024,0.029,0.049,0.06,0.08,0.091c0.025,0.025,0.057,0.051,0.088,0.074c0.078,0.06,0.17,0.115,0.282,0.159
			c0.017,0.005,0.037,0.01,0.056,0.016c0.133,0.046,0.287,0.075,0.473,0.076c0.16,0,0.328-0.021,0.496-0.059
			c0.049-0.011,0.1-0.02,0.145-0.032c0.08-0.022,0.158-0.052,0.236-0.082c0.033-0.013,0.068-0.022,0.1-0.038
			c0.062-0.028,0.123-0.062,0.184-0.093c0.13-0.073,0.246-0.147,0.332-0.217c0.141-0.112,0.249-0.225,0.328-0.322
			c0.058-0.071,0.109-0.149,0.155-0.229c0.013-0.025,0.201-0.467-0.131-0.995c-0.177-0.281-0.839-0.853-1.437-1.073
			c-0.229-0.087-0.393-0.151-0.514-0.197c0.002,0.017-0.002,0.041,0,0.058c0.017,0.2-0.003,0.453-0.121,0.708
			c-0.003,0.005-0.002,0.008-0.004,0.015c-0.003,0.002-0.006,0.004-0.008,0.009c-0.021,0.041-0.037,0.083-0.062,0.124
			c-0.036,0.056-0.092,0.097-0.141,0.143C6.892,27.431,6.873,27.458,6.847,27.478"/>
		<path fill="#FFFFFF" d="M5.363,25.183l1.732,0.771c0.002,0,0.002,0.002,0.003,0.002c0.001,0.001,0.001,0,0.001,0
			c0.006,0.001,0.147,0.068,0.775,0.303c0.635,0.235,1.28,0.788,1.531,1.128c-0.014-0.07-0.028-0.142-0.041-0.206
			c-0.053-0.265-0.082-0.419-0.082-0.513v-0.052c-0.002-0.131-0.005-0.326,0.06-0.554c0.076-0.272,0.23-0.521,0.458-0.74
			c0.531-0.516,0.43-1.292,0.242-1.656c-0.164-0.32-0.772-0.609-1.034-0.712c-0.013-0.002-0.206-0.024-0.537-0.091
			c-0.467-0.092-0.88-0.254-1.226-0.479c-0.263-0.17-0.477-0.373-0.587-0.56c-0.111-0.186-0.151-0.356-0.163-0.514l-1.619,2.433
			c-0.004,0.004-0.007,0.009-0.01,0.013c-0.099,0.118-0.102,0.452-0.006,0.814C4.947,24.905,5.307,25.147,5.363,25.183"/>
		<path fill="#FFFFFF" d="M9.265,20.27c0.428,0.025,1.146,0.064,1.279,0.064h0.007c0.11,0,0.526-0.087,0.556-0.458
			c0.033-0.423-0.076-0.718-0.111-0.802c-0.016-0.021-0.029-0.038-0.046-0.062c-0.076-0.095-0.343-0.39-0.368-0.42
			c-0.426-0.441-0.835-0.675-1.185-0.675c-0.144,0-0.278,0.038-0.407,0.117c-0.631,0.38-0.335,1.207-0.18,1.467L9.265,20.27z"/>
		<path fill="#FFFFFF" d="M48.585,32.984c0.22,0.268,0.428,0.519,0.505,0.636c0.263,0.396,0.357,1.019,0.392,1.453
			c0.076-0.119,0.15-0.239,0.188-0.313c0.289-0.568,0.11-1.582,0.07-1.776c-0.143-0.73-0.361-1.139-0.432-1.274
			c-0.051-0.095-0.33-0.466-0.609-0.523c-0.065-0.013-0.128-0.018-0.188-0.018c-0.23,0-0.4,0.091-0.521,0.278
			c-0.142,0.228-0.034,0.715,0.104,0.923C48.166,32.477,48.38,32.734,48.585,32.984"/>
		<polygon fill="#FFFFFF" points="23.777,7.662 23.645,7.667 23.658,8.263 		"/>
		<polygon fill="#FFFFFF" points="23.964,6.715 22.744,6.757 22.77,7.519 23.812,7.482 		"/>
		<polygon fill="#FFFFFF" points="24,6.533 24.154,5.766 23.64,5.784 23.667,6.546 		"/>
		<polygon fill="#FFFFFF" points="24.343,4.816 22.537,4.88 22.562,5.644 24.19,5.585 		"/>
		<polygon fill="#FFFFFF" points="15.947,7.899 15.138,8.129 15.351,8.872 15.929,8.697 		"/>
		<polygon fill="#FFFFFF" points="15.968,6.91 15.771,6.966 15.954,7.602 		"/>
		<polygon fill="#FFFFFF" points="14.693,7.092 15.972,6.724 15.99,5.929 14.484,6.361 		"/>
		<polygon fill="#FFFFFF" points="16.026,4.191 15.832,4.248 16.011,4.878 		"/>
		<polygon fill="#FFFFFF" points="22.491,7.528 22.592,7.524 22.566,6.763 22.199,6.775 		"/>
		<polygon fill="#FFFFFF" points="22.13,6.601 23.488,6.552 23.461,5.79 21.837,5.847 		"/>
		<polygon fill="#FFFFFF" points="21.769,5.671 22.384,5.648 22.359,4.887 21.474,4.916 		"/>
		<polygon fill="#FFFFFF" points="24.356,3.158 24.382,3.936 23.217,3.978 23.191,3.199 22.292,3.23 22.32,4.012 21.154,4.052 
			21.127,3.27 20.837,3.28 21.407,4.74 24.378,4.638 24.675,3.146 		"/>
		<polygon fill="#FFFFFF" points="15.599,7.017 14.009,7.474 14.447,8.138 15.81,7.751 		"/>
		<polygon fill="#FFFFFF" points="14.966,8.177 14.55,8.293 15.001,8.979 15.181,8.924 		"/>
		<polygon fill="#FFFFFF" points="13.465,6.65 13.906,7.316 14.521,7.141 14.312,6.409 		"/>
		<polygon fill="#FFFFFF" points="12.507,5.199 12.923,5.83 12.726,5.137 		"/>
		<polygon fill="#FFFFFF" points="14.924,5.318 14.71,4.568 13.846,4.817 14.06,5.566 12.958,5.884 13.363,6.495 15.994,5.742 
			16.009,5.008 		"/>
		<path fill="#FFFFFF" d="M15.905,9.9l0.021-1.017l-0.821,0.249l0.553,0.838C15.74,9.946,15.822,9.925,15.905,9.9"/>
		<path fill="#FFFFFF" d="M23.485,8.497l-0.019-0.823L22.56,7.705l0.328,0.844C23.085,8.528,23.286,8.516,23.485,8.497"/>
		<path fill="#FFFFFF" d="M17.849,9.398c-0.154-1.026-0.17-2.005-0.036-2.783c0.073-0.422,0.185-0.764,0.335-1.018
			c0.164-0.281,0.368-0.446,0.607-0.488c0.039-0.007,0.079-0.01,0.119-0.01c0.229,0,0.465,0.111,0.701,0.332
			c0.216,0.204,0.428,0.49,0.629,0.857c0.363,0.663,0.66,1.539,0.858,2.487c0.131-0.019,0.265-0.03,0.396-0.049
			c-0.228-1.086-0.599-2.081-1.068-2.824c-0.249-0.394-0.512-0.699-0.781-0.912c-0.268-0.21-0.529-0.316-0.779-0.316
			c-0.049,0-0.1,0.008-0.148,0.014c-0.255,0.046-0.485,0.205-0.684,0.479c-0.203,0.273-0.362,0.649-0.477,1.109
			c-0.22,0.899-0.237,2.032-0.061,3.21C17.589,9.455,17.719,9.428,17.849,9.398"/>
		<polygon fill="#FFFFFF" points="32.119,6.775 31.787,6.763 31.761,7.524 31.827,7.526 		"/>
		<polygon fill="#FFFFFF" points="32.481,5.846 30.891,5.79 30.865,6.552 32.187,6.599 		"/>
		<polygon fill="#FFFFFF" points="32.843,4.914 31.995,4.887 31.968,5.648 32.549,5.67 		"/>
		<polygon fill="#FFFFFF" points="30.697,8.177 30.708,7.667 30.595,7.663 		"/>
		<polygon fill="#FFFFFF" points="30.408,6.715 30.559,7.482 31.582,7.519 31.609,6.757 		"/>
		<polygon fill="#FFFFFF" points="30.712,5.784 30.218,5.767 30.371,6.535 30.687,6.545 		"/>
		<polygon fill="#FFFFFF" points="30.183,5.586 31.79,5.644 31.816,4.88 30.031,4.817 		"/>
		<polygon fill="#FFFFFF" points="32.034,4.012 32.061,3.23 31.162,3.199 31.134,3.978 29.97,3.937 29.997,3.158 29.7,3.146 
			29.996,4.639 32.911,4.739 33.179,4.051 		"/>
		<path fill="#FFFFFF" d="M31.425,8.559l0.332-0.854l-0.873-0.03l-0.016,0.833C31.054,8.523,31.24,8.539,31.425,8.559"/>
		<path fill="#FFFFFF" d="M38.646,9.99l0.566-0.857L38.39,8.884l0.021,1.041C38.491,9.946,38.568,9.968,38.646,9.99"/>
		<path fill="#FFFFFF" d="M44.083,7.784c-0.193-0.062-0.404-0.095-0.628-0.095c-1.165,0-2.681,0.842-3.56,2.694
			c0.127,0.041,0.254,0.083,0.381,0.127c0.343-0.716,0.801-1.326,1.35-1.77c0.566-0.463,1.184-0.715,1.736-0.715
			c0.201,0,0.387,0.034,0.555,0.102c0.086,0.033,0.166,0.05,0.234,0.05h0.002c0.109,0,0.183-0.044,0.195-0.117
			C44.363,7.971,44.285,7.849,44.083,7.784"/>
		<path fill-rule="evenodd" clip-rule="evenodd" fill="#FFFFFF" d="M40.511,10.589c0.65,0.226,1.295,0.467,1.932,0.726l1.279-2.983
			c-0.113-0.033-0.229-0.064-0.359-0.064c-0.213,0-0.44,0.051-0.67,0.134l0.461,0.504l-0.793-0.355
			c-0.074,0.039-0.146,0.074-0.221,0.12l0.867,0.685l-1.18-0.462c-0.018,0.012-0.035,0.021-0.051,0.033
			c-0.044,0.038-0.084,0.082-0.129,0.121l1.102,0.809L41.4,9.277c-0.057,0.06-0.109,0.126-0.164,0.191l1.322,0.881l-1.551-0.605
			c-0.034,0.048-0.064,0.102-0.098,0.151l1.383,0.928l-1.594-0.603C40.63,10.34,40.572,10.465,40.511,10.589"/>
		<path fill="#FFFFFF" d="M14.028,10.486c0.127-0.043,0.253-0.085,0.38-0.127c-0.881-1.834-2.387-2.67-3.545-2.67
			c-0.225,0-0.436,0.033-0.629,0.095c-0.202,0.064-0.281,0.187-0.266,0.276c0.011,0.073,0.086,0.117,0.195,0.117
			c0.07,0,0.149-0.017,0.236-0.05c0.168-0.067,0.355-0.102,0.554-0.102c0.553,0,1.171,0.252,1.735,0.716
			C13.232,9.18,13.687,9.782,14.028,10.486"/>
		<path fill-rule="evenodd" clip-rule="evenodd" fill="#FFFFFF" d="M18.969,9.142c0.613-0.124,1.231-0.23,1.852-0.326
			C20.81,8.768,20.8,8.719,20.789,8.67l-2.088,0.12l1.994-0.533c-0.021-0.081-0.047-0.159-0.07-0.24l-2.084,0.168l1.992-0.479
			c-0.029-0.091-0.06-0.178-0.091-0.265l-2.013,0.177l1.895-0.492c-0.029-0.073-0.057-0.147-0.088-0.218l-1.803,0.167l1.66-0.465
			c-0.033-0.067-0.064-0.141-0.1-0.205c-0.01-0.02-0.02-0.032-0.03-0.05l-1.617,0.16l1.456-0.415
			c-0.037-0.057-0.072-0.118-0.109-0.168l-1.336,0.083l1.147-0.302c-0.22-0.234-0.437-0.372-0.63-0.372
			c-0.025,0-0.053,0.001-0.078,0.004c-0.34,0.061-0.613,0.539-0.744,1.312c-0.131,0.746-0.111,1.694,0.035,2.687
			C18.382,9.276,18.675,9.201,18.969,9.142"/>
		<path fill-rule="evenodd" clip-rule="evenodd" fill="#FFFFFF" d="M42.789,11.639h-0.002C37.821,9.561,32.55,8.507,27.121,8.507
			h-0.009c-5.429,0-10.7,1.054-15.665,3.132h-0.002c-0.1,0.041-0.18,0.118-0.217,0.212c-0.033,0.081-0.03,0.168,0.006,0.249
			c0.049,0.108,0.146,0.163,0.284,0.163c0.057,0,0.103-0.009,0.117-0.011c2.399-1.011,4.911-1.785,7.462-2.306
			c2.619-0.534,5.316-0.803,8.015-0.803h0.009c2.699,0,5.395,0.269,8.016,0.803c2.551,0.521,5.062,1.295,7.463,2.306
			c0.014,0.002,0.059,0.011,0.116,0.011c0.138,0,0.234-0.055,0.284-0.163c0.037-0.081,0.037-0.168,0.005-0.249
			C42.967,11.757,42.888,11.68,42.789,11.639"/>
		<path fill-rule="evenodd" clip-rule="evenodd" fill="#FFFFFF" d="M33.492,8.83c0.594,0.093,1.186,0.193,1.772,0.312
			c0.322,0.065,0.641,0.146,0.962,0.221c0.15-1.001,0.17-1.952,0.04-2.705c-0.134-0.772-0.406-1.251-0.747-1.312
			c-0.025-0.003-0.05-0.004-0.076-0.004c-0.195,0-0.412,0.138-0.631,0.373l1.147,0.301l-1.335-0.083
			c-0.037,0.05-0.072,0.111-0.109,0.168l1.455,0.415l-1.616-0.16c-0.011,0.018-0.021,0.03-0.03,0.05
			c-0.035,0.062-0.064,0.138-0.1,0.205l1.658,0.465l-1.801-0.167c-0.031,0.07-0.059,0.145-0.088,0.219l1.895,0.491l-2.014-0.177
			c-0.03,0.087-0.061,0.174-0.091,0.265l1.992,0.479l-2.083-0.168c-0.023,0.081-0.049,0.159-0.07,0.24l1.993,0.533l-2.088-0.12
			C33.517,8.724,33.504,8.776,33.492,8.83"/>
	</g>
</g>
</svg>
